<svg width="20" height="20" viewBox="0 0 20 20" fill="none" xmlns="http://www.w3.org/2000/svg">
<g clip-path="url(#clip0_233_2375)">
<path d="M3.75 17.9168L7.08333 14.5835M8.75 14.5835L12.0833 17.9168M7.91667 14.5835L7.91667 18.7502" stroke="white" stroke-width="1.5" stroke-linecap="round" stroke-linejoin="round"/>
<path d="M1.66663 9.89583C1.66663 8.17717 1.66663 7.31784 2.5209 6.78392C3.37517 6.25 4.7501 6.25 7.49996 6.25H8.33329C11.0832 6.25 12.4581 6.25 13.3124 6.78392C14.1666 7.31784 14.1666 8.17717 14.1666 9.89583V10.9375C14.1666 12.6562 14.1666 13.5155 13.3124 14.0494C12.4581 14.5833 11.0832 14.5833 8.33329 14.5833H7.49996C4.7501 14.5833 3.37517 14.5833 2.5209 14.0494C1.66663 13.5155 1.66663 12.6562 1.66663 10.9375V9.89583Z" stroke="white" stroke-width="1.5"/>
<path d="M14.1666 8.54144L14.2716 8.47847C16.0347 7.42045 16.9163 6.89144 17.6248 7.14687C18.3333 7.4023 18.3333 8.24913 18.3333 9.94279V10.8906C18.3333 12.5842 18.3333 13.4311 17.6248 13.6865C16.9163 13.9419 16.0347 13.4129 14.2716 12.3549L14.1666 12.2919" stroke="white" stroke-width="1.5" stroke-linecap="round"/>
<circle cx="10.4166" cy="4.16683" r="2.08333" stroke="white" stroke-width="1.5"/>
<circle cx="5.83325" cy="3.75" r="2.5" stroke="white" stroke-width="1.5"/>
</g>
<defs>
<clipPath id="clip0_233_2375">
<rect width="20" height="20" fill="white"/>
</clipPath>
</defs>
</svg>
