<svg width="949" height="563" viewBox="0 0 949 563" fill="none" xmlns="http://www.w3.org/2000/svg">
<path d="M1081.55 209.595C1043.4 107.988 879.202 69.7228 767.239 92.1024C638.216 117.905 609.734 218.024 505.117 208.81C409.655 200.432 384.592 112.716 315.429 111.119C251.866 109.654 167.768 181.293 68.6425 476.444" stroke="#1AB78D" stroke-width="0.3" stroke-miterlimit="10"/>
<path d="M78.677 486.414C176.735 195.459 260.426 121.738 324.32 120.663C371.688 119.928 398.871 159.706 442.073 186.685C463.754 200.677 488.501 209.277 514.093 211.713C597.936 219.755 633.631 160.475 712.968 123.041C733.176 113.436 754.534 106.219 776.603 101.539C888.65 77.398 1049.21 107.148 1088.83 204.522" stroke="#1AB78D" stroke-width="0.3" stroke-miterlimit="10"/>
<path d="M88.7233 496.346C185.717 209.607 268.951 133.831 333.051 130.259C380.171 127.638 407.94 165.167 450.834 190.42C472.802 203.708 497.446 211.997 522.887 214.654C605.678 223.287 642.471 169.018 722.326 132.539C742.61 123.223 763.884 116.015 785.806 111.028C898.033 85.4645 1054.86 106.342 1095.94 199.483" stroke="#1AB78D" stroke-width="0.3" stroke-miterlimit="10"/>
<path d="M98.7453 506.246C194.65 223.784 277.485 145.963 341.853 139.826C388.769 135.347 417.044 170.604 459.688 194.139C481.903 206.722 506.428 214.71 531.701 217.593C613.514 226.804 651.236 177.559 731.704 142.035C752.063 132.96 773.273 125.736 795.073 120.451C907.416 93.2706 1060.56 105.475 1103.1 194.381" stroke="#1AB78D" stroke-width="0.3" stroke-miterlimit="10"/>
<path d="M108.786 516.234C203.615 237.937 285.986 158.12 350.677 149.408C397.337 143.1 426.208 176.068 468.573 197.835C491.049 209.717 515.499 217.409 540.641 220.508C621.476 230.296 660.185 186.085 741.3 151.49C761.7 142.715 782.805 135.509 804.426 129.934C916.904 101.133 1066.36 104.681 1110.38 189.349" stroke="#1AB78D" stroke-width="0.3" stroke-miterlimit="10"/>
<path d="M118.75 526.201C212.565 252.098 294.156 168.525 359.499 158.978C406.131 152.112 435.348 181.411 477.429 201.56C500.151 212.717 524.523 220.112 549.529 223.439C629.385 233.804 669.046 194.633 750.682 161.011C771.131 152.484 792.156 145.27 813.627 139.414C926.223 108.921 1072 103.868 1117.49 184.318" stroke="#1AB78D" stroke-width="0.3" stroke-miterlimit="10"/>
<path d="M128.882 536.136C221.541 266.273 303.025 182.573 368.286 168.461C414.43 158.722 444.551 186.856 486.309 205.302C509.254 215.73 533.553 222.836 558.423 226.389C637.301 237.331 677.964 203.171 760.139 170.519C780.642 162.262 801.593 155.052 822.911 148.917C935.642 116.805 1077.72 103.024 1124.68 179.292" stroke="#1AB78D" stroke-width="0.3" stroke-miterlimit="10"/>
<path d="M138.922 546.089C230.457 280.441 311.505 194.704 377.136 178.141C422.971 166.508 453.755 192.133 495.182 209.007C518.33 218.699 542.564 225.506 567.301 229.267C645.187 240.808 686.859 211.696 769.581 179.955C788.834 172.592 809.474 165.12 832.175 158.331C945.046 124.541 1083.45 102.236 1131.86 174.232" stroke="#1AB78D" stroke-width="0.3" stroke-miterlimit="10"/>
<path d="M148.962 556.042C239.469 294.614 320.03 207.039 385.934 187.685C431.516 174.317 462.98 197.431 504.086 212.694C527.438 221.64 551.624 228.17 576.242 232.177C653.148 244.294 695.782 220.182 779.087 189.441C798.48 182.277 819.073 174.851 841.522 167.791C954.373 132.374 1089.17 101.437 1139.04 169.179" stroke="#1AB78D" stroke-width="0.3" stroke-miterlimit="10"/>
<path d="M159.021 565.973C248.445 308.776 328.551 219.338 394.775 197.317C440.089 182.236 472.309 202.748 512.914 216.454C536.44 224.652 560.578 230.911 585.07 235.166C661.016 247.857 704.637 228.778 788.48 198.912C807.92 191.965 828.532 184.536 850.733 177.222C963.817 140.036 1094.87 100.532 1146.2 164.056" stroke="#1AB78D" stroke-width="0.3" stroke-miterlimit="10"/>
<path d="M169.068 575.926C257.404 322.944 337.081 231.678 403.551 206.91C448.6 190.134 481.495 208.023 521.762 220.215C545.453 227.639 569.555 233.618 593.927 238.117C668.876 251.388 713.48 237.323 797.919 208.511C817.507 201.799 838.059 194.363 859.999 186.817C973.188 147.887 1100.56 99.8429 1153.39 159.123" stroke="#1AB78D" stroke-width="0.3" stroke-miterlimit="10"/>
<path d="M179.116 585.879C266.387 337.129 345.649 244.014 412.419 216.489C457.226 198.033 490.805 213.26 530.662 223.951C553.571 230.089 576.996 236.225 602.858 241.058C676.824 254.888 722.419 245.873 807.411 218.009C827.106 211.522 847.617 204.075 869.35 196.287C982.644 155.613 1106.36 99.027 1160.63 154.092" stroke="#1AB78D" stroke-width="0.3" stroke-miterlimit="10"/>
<path d="M189.169 595.832C275.387 351.369 354.101 256.413 421.24 226.1C465.802 205.947 500.112 218.465 539.547 227.696C562.818 233.147 586.233 238.983 611.757 244.011C684.755 258.471 731.303 254.418 816.87 227.518C836.675 221.273 857.164 213.812 878.594 205.781C991.966 163.332 1112.04 98.2387 1167.78 149.085" stroke="#1AB78D" stroke-width="0.3" stroke-miterlimit="10"/>
<path d="M199.186 605.792C284.34 365.49 362.759 268.796 430.061 235.716C474.389 213.921 509.414 223.658 548.436 231.465C572.079 236.189 595.469 241.747 620.585 247.002C692.61 261.98 740.12 263.018 826.336 237.068C846.262 231.026 866.691 223.558 887.881 215.31C1001.34 171.047 1117.77 97.4515 1174.96 144.079" stroke="#1AB78D" stroke-width="0.3" stroke-miterlimit="10"/>
<path d="M209.298 615.717C293.33 379.663 371.303 281.243 438.903 245.316C483.01 221.857 518.729 228.8 557.304 235.208C581.314 239.187 604.725 244.497 629.557 249.935C700.566 265.496 749.095 271.539 835.794 246.569C856.648 240.33 877.133 233.041 897.167 224.733C1010.7 178.753 1123.55 96.6996 1182.15 139.065" stroke="#1AB78D" stroke-width="0.3" stroke-miterlimit="10"/>
<path d="M219.36 625.669C302.327 393.857 379.983 293.614 447.672 254.935C491.564 229.831 527.985 233.941 566.213 238.968C590.587 242.184 613.982 247.253 638.461 252.907C708.507 269.039 758.005 280.114 845.218 256.101C866.114 250.138 886.559 242.855 906.425 234.298C1020.03 186.359 1129.22 95.942 1189.33 134.004" stroke="#1AB78D" stroke-width="0.3" stroke-miterlimit="10"/>
<path d="M229.428 635.622C311.305 408.04 388.696 306.115 456.574 264.537C500.221 237.832 537.347 239.033 575.085 242.726C599.819 245.162 623.209 250.043 647.349 255.89C716.397 272.601 766.895 288.681 854.719 265.625C875.65 259.916 896.054 252.62 915.747 243.802C1029.37 194.102 1134.95 95.2042 1196.54 129.103" stroke="#1AB78D" stroke-width="0.3" stroke-miterlimit="10"/>
<path d="M239.632 645.571C320.431 422.404 397.35 318.731 465.499 274.331C508.98 245.984 546.729 244.275 584.041 246.676C609.196 248.281 632.525 252.983 656.327 259.04C724.379 276.282 775.847 297.417 864.235 275.335C885.194 269.87 905.556 262.563 925.077 253.501C1038.73 201.966 1140.69 94.6899 1203.73 124.359" stroke="#1AB78D" stroke-width="0.3" stroke-miterlimit="10"/>
<path d="M249.824 655.524C329.436 436.621 406.128 331.363 474.46 284.181C517.745 254.238 556.109 249.584 593.043 250.743C618.504 251.596 641.909 256.056 665.333 262.31C732.405 280.154 784.844 306.263 873.764 285.103C894.75 279.884 915.075 272.565 934.42 263.259C1048.09 209.874 1146.55 94.3033 1210.95 119.711" stroke="#1AB78D" stroke-width="0.3" stroke-miterlimit="10"/>
<path d="M260.024 665.477C338.633 450.893 414.932 343.989 483.381 293.908C526.504 262.345 565.456 254.719 602.003 254.601C627.788 254.531 651.195 258.931 674.303 265.408C740.369 283.821 793.783 314.917 883.273 294.764C904.288 289.799 924.579 282.466 943.742 272.909C1057.41 217.626 1152.18 93.729 1218.13 114.935" stroke="#1AB78D" stroke-width="0.3" stroke-miterlimit="10"/>
<path d="M270.241 675.409C347.756 465.152 423.758 356.696 492.262 303.694C535.211 270.552 574.725 259.925 610.898 258.584C637.01 257.61 660.448 261.907 683.189 268.543C748.289 287.536 802.681 323.631 892.711 304.433C913.753 299.703 934.017 292.354 953.011 282.564C1066.54 225.257 1157.86 93.2804 1225.29 110.229" stroke="#1AB78D" stroke-width="0.3" stroke-miterlimit="10"/>
<path d="M280.428 685.365C404.445 351.115 526.582 269.151 619.959 262.538C721.893 255.315 780.043 338.705 902.307 314.124C1045.73 285.269 1152.01 90.6337 1232.52 105.536" stroke="#1AB78D" stroke-width="0.3" stroke-miterlimit="10"/>
</svg>
