<svg width="312" height="319" viewBox="0 0 312 319" fill="none" xmlns="http://www.w3.org/2000/svg">
<path d="M590.94 66.3168C544.7 19.8423 446.87 41.6956 392.45 83.5495C329.741 131.788 339.836 194.939 281.349 217.296C227.987 237.713 192.297 195.523 154.77 212.803C120.282 228.685 93.3066 290.609 114.932 480.762" stroke="#1AB78D" stroke-width="0.3" stroke-miterlimit="10"/>
<path d="M123.013 483.846C101.879 296.308 128.108 233.332 162.129 215.952C187.367 203.1 212.042 218.078 242.07 221.731C257.254 223.816 272.717 222.097 287.071 216.73C334.11 199.178 338.24 156.84 371.332 115.185C379.743 104.536 389.377 94.9133 400.036 86.5143C454.055 43.6589 547.775 18.0255 593.726 61.7621" stroke="#1AB78D" stroke-width="0.3" stroke-miterlimit="10"/>
<path d="M131.09 486.905C110.454 301.99 135.917 237.993 169.416 219.17C194.042 205.335 218.461 218.908 247.886 221.682C263.046 223.3 278.374 221.436 292.703 216.231C339.328 199.284 345.318 159.444 378.93 118.184C387.455 107.676 397.046 98.0801 407.548 89.5486C461.303 45.8553 550.771 16.2692 596.432 57.2679" stroke="#1AB78D" stroke-width="0.3" stroke-miterlimit="10"/>
<path d="M139.144 489.952C119.008 307.702 143.738 242.672 176.731 222.352C200.776 207.537 224.891 219.715 253.747 221.599C268.86 222.761 284.048 220.76 298.344 215.725C344.591 199.356 352.353 162.066 386.536 121.175C395.163 110.782 404.715 101.194 415.076 92.529C468.483 47.9057 553.772 14.4657 599.145 52.7265" stroke="#1AB78D" stroke-width="0.3" stroke-miterlimit="10"/>
<path d="M147.232 493.045C127.573 313.392 151.548 247.373 184.061 225.536C207.506 209.772 231.361 220.52 259.618 221.495C274.694 222.198 289.767 220.053 304.047 215.172C349.916 199.381 359.484 164.63 394.25 124.087C402.975 113.849 412.475 104.298 422.666 95.5188C475.735 49.959 556.852 12.6738 601.944 48.19" stroke="#1AB78D" stroke-width="0.3" stroke-miterlimit="10"/>
<path d="M155.271 496.147C136.13 319.088 158.734 251.185 191.385 228.712C214.674 212.645 237.784 221.262 265.479 221.413C280.503 221.648 295.46 219.358 309.724 214.639C355.214 199.426 366.57 167.227 401.863 127.088C410.677 116.975 420.132 107.441 430.172 98.5442C482.876 52.012 559.841 10.9087 604.65 43.6959" stroke="#1AB78D" stroke-width="0.3" stroke-miterlimit="10"/>
<path d="M163.391 499.188C144.703 324.786 167.217 256.839 198.667 231.849C220.965 214.313 244.266 222.045 271.356 221.333C286.315 221.105 301.159 218.673 315.408 214.116C360.52 199.481 373.684 169.804 409.512 130.062C418.423 120.085 427.841 110.572 437.727 101.561C490.092 54.092 562.858 9.10764 607.398 39.1838" stroke="#1AB78D" stroke-width="0.3" stroke-miterlimit="10"/>
<path d="M171.465 502.263C153.241 330.496 175.005 261.529 206.032 235.078C227.684 216.569 250.704 222.733 277.218 221.234C292.101 220.543 306.834 217.963 321.065 213.556C365.796 199.515 380.782 172.379 417.134 132.999C425.601 123.848 434.785 114.271 445.248 104.532C497.264 56.0932 565.896 7.33323 610.133 34.6536" stroke="#1AB78D" stroke-width="0.3" stroke-miterlimit="10"/>
<path d="M179.539 505.338C161.831 336.181 182.866 266.318 213.333 238.243C234.409 218.835 257.158 223.424 283.092 221.114C297.895 219.955 312.533 217.233 326.762 212.994C371.114 199.531 387.883 174.923 424.803 135.944C433.395 126.867 442.566 117.328 452.825 107.504C504.417 58.1645 568.926 5.55047 612.867 30.124" stroke="#1AB78D" stroke-width="0.3" stroke-miterlimit="10"/>
<path d="M187.617 508.396C170.397 341.87 190.715 271.088 220.678 241.445C241.176 221.155 263.671 224.099 288.942 221.054C303.648 219.433 318.192 216.574 332.417 212.506C376.399 199.614 394.975 177.545 432.405 138.911C441.078 129.941 450.258 120.395 460.32 110.496C511.589 60.1096 571.917 3.71321 615.575 25.5578" stroke="#1AB78D" stroke-width="0.3" stroke-miterlimit="10"/>
<path d="M195.691 511.471C178.954 347.566 198.577 275.877 227.975 244.641C247.902 223.477 270.095 224.785 294.8 220.988C309.399 218.894 323.853 215.888 338.076 211.987C381.671 199.68 402.046 180.14 440.063 141.935C448.875 133.056 458.021 123.522 467.884 113.561C518.767 62.1762 574.955 1.99529 618.342 21.0885" stroke="#1AB78D" stroke-width="0.3" stroke-miterlimit="10"/>
<path d="M203.766 514.546C187.526 353.265 206.457 280.653 235.317 247.803C254.688 225.767 276.574 225.415 300.679 220.892C314.533 218.288 328.662 215.547 343.77 211.441C386.98 199.703 409.168 182.711 447.723 144.886C456.649 136.104 465.771 126.574 475.461 116.533C525.959 64.1487 578.015 0.176484 621.11 16.5475" stroke="#1AB78D" stroke-width="0.3" stroke-miterlimit="10"/>
<path d="M211.841 517.621C196.119 358.99 214.288 285.492 242.639 250.994C261.447 228.078 283.039 226.027 306.549 220.803C320.423 217.721 334.471 214.817 349.447 210.908C392.299 199.775 416.257 185.292 455.365 147.851C464.413 139.174 473.518 129.642 482.984 119.545C533.075 66.1499 581.021 -1.60248 623.834 12.0395" stroke="#1AB78D" stroke-width="0.3" stroke-miterlimit="10"/>
<path d="M219.897 520.709C204.655 364.66 222.224 290.268 249.96 254.185C268.227 230.415 289.498 226.631 312.425 220.723C326.314 217.139 340.28 214.087 355.095 210.412C397.557 199.823 423.323 187.919 463.021 150.834C472.185 142.238 481.256 132.717 490.539 122.562C540.217 68.1314 584.045 -3.39434 626.575 7.51873" stroke="#1AB78D" stroke-width="0.3" stroke-miterlimit="10"/>
<path d="M227.992 523.755C213.221 370.349 230.111 295.108 257.285 257.361C275.011 232.721 295.946 227.201 318.279 220.631C332.178 216.537 346.092 213.341 360.801 209.843C402.867 199.846 430.45 190.458 470.657 153.79C480.269 144.84 489.416 135.403 498.063 125.517C547.344 70.1103 587.11 -5.18884 629.31 2.98856" stroke="#1AB78D" stroke-width="0.3" stroke-miterlimit="10"/>
<path d="M236.067 526.829C221.793 376.047 238.049 299.867 264.573 260.563C281.766 235.063 302.361 227.781 324.158 220.535C338.058 215.921 351.903 212.595 366.478 209.31C408.174 199.884 437.555 193.042 478.281 156.768C487.986 147.96 497.113 138.537 505.607 128.556C554.431 72.0353 590.107 -6.96106 632.034 -1.57534" stroke="#1AB78D" stroke-width="0.3" stroke-miterlimit="10"/>
<path d="M244.141 529.904C230.35 381.744 246.034 304.69 271.924 263.718C288.579 237.39 308.815 228.304 330.012 220.444C343.908 215.302 357.703 211.873 372.146 208.784C413.454 199.943 444.643 195.624 485.941 159.72C495.729 151.043 504.831 141.622 513.166 131.541C561.555 74.0304 593.138 -8.74387 634.802 -6.06021" stroke="#1AB78D" stroke-width="0.3" stroke-miterlimit="10"/>
<path d="M252.225 532.972C238.949 387.477 253.928 309.539 279.246 266.909C295.395 239.7 315.229 228.829 335.873 220.362C349.786 214.645 363.506 211.134 377.823 208.251C418.739 199.97 451.739 198.214 493.59 162.693C503.456 154.143 512.534 144.724 520.714 134.548C568.653 75.9889 596.162 -10.5363 637.544 -10.5816" stroke="#1AB78D" stroke-width="0.3" stroke-miterlimit="10"/>
<path d="M260.299 536.047C247.443 393.165 261.888 314.366 286.597 270.121C302.235 242.062 321.654 229.387 341.782 220.327C355.671 214.111 369.373 210.444 383.54 207.773C424.091 200.087 458.884 200.852 501.259 165.694C511.203 157.271 520.258 147.852 528.282 137.583C575.764 77.9659 599.278 -12.2991 640.312 -15.0666" stroke="#1AB78D" stroke-width="0.3" stroke-miterlimit="10"/>
<path d="M268.374 539.122C256.051 398.836 269.858 319.186 293.892 273.276C309.03 244.346 328.012 229.856 347.611 220.184C361.442 213.367 375.132 209.667 389.19 207.204C429.354 200.103 465.946 203.398 508.888 168.641C518.913 160.35 527.946 150.928 535.81 140.564C582.805 79.8688 602.217 -14.1113 643.026 -19.6234" stroke="#1AB78D" stroke-width="0.3" stroke-miterlimit="10"/>
<path d="M276.451 542.18C264.617 404.526 277.861 324.051 301.18 276.478C315.823 246.701 334.346 230.386 353.437 220.128C367.216 212.72 380.899 208.955 394.802 206.678C434.603 200.158 473.001 205.991 516.481 171.615C526.582 163.445 535.598 154.018 543.311 143.564C589.722 81.7535 605.213 -15.8678 645.743 -24.1403" stroke="#1AB78D" stroke-width="0.3" stroke-miterlimit="10"/>
<path d="M284.516 545.262C266.093 326.113 310.856 248.256 359.342 220.013C412.27 189.18 464.732 220.428 524.165 174.562C593.879 120.748 601.453 -15.8206 648.502 -28.6743" stroke="#1AB78D" stroke-width="0.3" stroke-miterlimit="10"/>
</svg>
