<svg width="499" height="222" viewBox="0 0 499 222" fill="none" xmlns="http://www.w3.org/2000/svg">
<path d="M524.095 12.1459C483.085 -29.0716 396.321 -9.69029 348.057 27.4292C292.442 70.2111 301.395 126.219 249.524 146.047C202.198 164.154 170.545 126.737 137.263 142.062C106.676 156.147 82.752 211.067 101.931 379.71" stroke="#1AB78D" stroke-width="0.3" stroke-miterlimit="10"/>
<path d="M109.098 382.445C90.3545 216.121 113.617 160.269 143.79 144.854C166.173 133.457 188.056 146.74 214.687 149.98C228.154 151.829 241.868 150.305 254.598 145.544C296.317 129.978 299.979 92.4288 329.328 55.4864C336.788 46.0419 345.332 37.5074 354.785 30.0585C402.693 -7.94923 485.812 -30.683 526.566 8.10623" stroke="#1AB78D" stroke-width="0.3" stroke-miterlimit="10"/>
<path d="M116.261 385.158C97.9593 221.161 120.542 164.403 150.252 147.708C172.092 135.438 193.749 147.476 219.846 149.936C233.291 151.372 246.885 149.718 259.593 145.102C300.945 130.072 306.256 94.7384 336.066 58.1457C343.627 48.8268 352.133 40.316 361.447 32.7497C409.121 -6.00125 488.469 -32.2406 528.966 4.12045" stroke="#1AB78D" stroke-width="0.3" stroke-miterlimit="10"/>
<path d="M123.405 387.861C105.546 226.226 127.479 168.552 156.739 150.53C178.065 137.392 199.452 148.192 225.043 149.863C238.447 150.893 251.918 149.119 264.596 144.653C305.612 130.136 312.495 97.0637 342.812 60.7989C350.463 51.5813 358.935 43.0777 368.124 35.3929C415.49 -4.1827 491.131 -33.8401 531.371 0.0927047" stroke="#1AB78D" stroke-width="0.3" stroke-miterlimit="10"/>
<path d="M130.578 390.604C113.142 231.272 134.406 172.722 163.241 153.355C184.034 139.374 205.19 148.906 230.251 149.771C243.622 150.394 256.989 148.492 269.654 144.163C310.334 130.158 318.82 99.3378 349.653 63.3811C357.391 54.3012 365.817 45.8307 374.855 38.0446C421.921 -2.36158 493.862 -35.4292 533.854 -3.9305" stroke="#1AB78D" stroke-width="0.3" stroke-miterlimit="10"/>
<path d="M137.707 393.355C120.731 236.324 140.778 176.102 169.736 156.171C190.39 141.922 210.886 149.564 235.449 149.698C248.773 149.906 262.038 147.875 274.689 143.69C315.033 130.198 325.105 101.641 356.405 66.0423C364.222 57.0736 372.608 48.6179 381.512 40.7276C428.254 -0.540957 496.513 -36.9948 536.253 -7.91642" stroke="#1AB78D" stroke-width="0.3" stroke-miterlimit="10"/>
<path d="M144.908 396.052C128.334 241.378 148.302 181.117 176.195 158.954C195.97 143.401 216.635 150.258 240.661 149.627C253.928 149.424 267.093 147.268 279.73 143.226C319.739 130.247 331.414 103.927 363.189 68.6799C371.092 59.8317 379.445 51.395 388.213 43.403C434.654 1.30382 499.189 -38.592 538.691 -11.9179" stroke="#1AB78D" stroke-width="0.3" stroke-miterlimit="10"/>
<path d="M152.07 398.779C135.907 246.442 155.209 185.276 182.726 161.817C201.929 145.402 222.345 150.869 245.86 149.54C259.059 148.926 272.126 146.638 284.747 142.73C324.418 130.277 337.709 106.211 369.949 71.2854C377.458 63.169 385.603 54.6751 394.883 46.0383C441.015 3.07867 501.883 -40.1657 541.116 -15.9357" stroke="#1AB78D" stroke-width="0.3" stroke-miterlimit="10"/>
<path d="M159.231 401.506C143.525 251.484 162.181 189.523 189.201 164.624C207.894 147.412 228.069 151.482 251.07 149.433C264.198 148.405 277.18 145.991 289.799 142.232C329.134 130.292 344.007 108.467 376.75 73.8976C384.371 65.8468 392.504 57.3867 401.603 48.6744C447.359 4.9159 504.571 -41.7465 543.541 -19.9527" stroke="#1AB78D" stroke-width="0.3" stroke-miterlimit="10"/>
<path d="M166.394 404.219C151.122 256.529 169.142 193.754 195.715 167.464C213.895 149.469 233.846 152.08 256.258 149.38C269.301 147.942 282.199 145.406 294.814 141.799C333.822 130.365 350.296 110.792 383.493 76.5286C391.185 68.5732 399.326 60.1072 408.25 51.3272C453.719 6.64078 507.223 -43.3762 545.943 -24.0026" stroke="#1AB78D" stroke-width="0.3" stroke-miterlimit="10"/>
<path d="M173.555 406.946C158.711 261.581 176.115 198.001 202.187 170.298C219.86 151.528 239.542 152.689 261.453 149.321C274.401 147.463 287.219 144.798 299.833 141.338C338.497 130.423 356.567 113.094 390.284 79.2099C398.1 71.3359 406.211 62.8798 414.958 54.0462C460.086 8.47352 509.917 -44.8999 548.396 -27.9665" stroke="#1AB78D" stroke-width="0.3" stroke-miterlimit="10"/>
<path d="M180.716 409.673C166.314 266.635 183.103 202.236 208.698 173.103C225.878 153.56 245.288 153.248 266.667 149.236C278.954 146.926 291.485 144.495 304.884 140.854C343.206 130.444 362.884 115.374 397.078 81.8277C404.994 74.0392 413.084 65.587 421.678 56.6819C466.464 10.2229 512.631 -46.513 550.852 -31.9938" stroke="#1AB78D" stroke-width="0.3" stroke-miterlimit="10"/>
<path d="M187.878 412.399C173.934 271.713 190.048 206.529 215.192 175.933C231.873 155.609 251.023 153.79 271.873 149.157C284.177 146.424 296.637 143.848 309.919 140.382C347.923 130.508 369.171 117.663 403.856 84.457C411.88 76.7619 419.955 68.3078 428.35 59.3529C472.775 11.9978 515.297 -48.0906 553.267 -35.9917" stroke="#1AB78D" stroke-width="0.3" stroke-miterlimit="10"/>
<path d="M195.023 415.139C181.505 276.741 197.086 210.764 221.686 178.763C237.886 157.682 256.751 154.326 277.084 149.086C289.403 145.908 301.789 143.201 314.927 139.941C352.586 130.55 375.438 119.993 410.645 87.1027C418.772 79.4792 426.818 71.035 435.05 62.0284C479.109 13.7552 517.979 -49.6797 555.698 -40.0011" stroke="#1AB78D" stroke-width="0.3" stroke-miterlimit="10"/>
<path d="M202.202 417.84C189.102 281.787 204.081 215.057 228.182 181.579C243.903 159.727 262.47 154.831 282.276 149.005C294.603 145.374 306.943 142.539 319.989 139.437C357.296 130.57 381.759 122.245 417.417 89.7242C425.942 81.7865 434.055 73.4174 441.723 64.6499C485.43 15.5103 520.698 -51.2712 558.124 -44.0188" stroke="#1AB78D" stroke-width="0.3" stroke-miterlimit="10"/>
<path d="M209.364 420.566C196.705 286.84 211.122 219.278 234.646 184.419C249.894 161.804 268.158 155.346 287.49 148.92C299.818 144.827 312.097 141.878 325.023 138.964C362.002 130.604 388.06 124.536 424.179 92.3653C432.786 84.554 440.881 76.1965 448.414 67.3447C491.715 17.2174 523.356 -52.843 560.54 -48.0665" stroke="#1AB78D" stroke-width="0.3" stroke-miterlimit="10"/>
<path d="M216.525 423.294C204.293 291.892 218.203 223.555 241.165 187.218C255.936 163.867 273.882 155.81 292.682 148.839C305.006 144.278 317.241 141.237 330.05 138.498C366.685 130.657 394.347 126.826 430.972 94.9833C439.653 87.2883 447.726 78.9331 455.118 69.9924C498.033 18.9869 526.044 -54.4241 562.995 -52.044" stroke="#1AB78D" stroke-width="0.3" stroke-miterlimit="10"/>
<path d="M223.694 426.014C211.92 296.978 225.204 227.856 247.659 190.048C261.981 165.917 279.571 156.275 297.88 148.766C310.22 143.696 322.387 140.582 335.085 138.025C371.373 130.681 400.64 129.124 437.756 97.6207C446.507 90.0378 454.558 81.6839 461.812 72.6596C504.328 20.7241 528.726 -56.0135 565.426 -56.0537" stroke="#1AB78D" stroke-width="0.3" stroke-miterlimit="10"/>
<path d="M230.855 428.741C219.453 302.022 232.264 232.136 254.178 192.896C268.047 168.011 285.27 156.77 303.121 148.734C315.439 143.222 327.59 139.97 340.155 137.601C376.119 130.784 406.976 131.463 444.558 100.282C453.377 92.8116 461.408 84.4577 468.524 75.3507C510.635 22.4772 531.489 -57.5772 567.881 -60.0317" stroke="#1AB78D" stroke-width="0.3" stroke-miterlimit="10"/>
<path d="M238.016 431.468C227.087 307.052 239.332 236.411 260.648 195.694C274.073 170.037 290.908 157.186 308.291 148.608C320.557 142.562 332.698 139.281 345.166 137.096C380.786 130.799 413.239 133.721 451.324 102.896C460.215 95.5419 468.227 87.1861 475.201 77.9941C516.88 24.1648 534.096 -59.1845 570.289 -64.0731" stroke="#1AB78D" stroke-width="0.3" stroke-miterlimit="10"/>
<path d="M245.18 434.181C234.684 312.098 246.43 240.726 267.112 198.535C280.098 172.126 296.526 157.656 313.457 148.559C325.677 141.989 337.813 138.65 350.143 136.63C385.442 130.847 419.497 136.021 458.058 105.533C467.016 98.2868 475.012 89.9268 481.853 80.6553C523.014 25.8365 536.753 -60.7421 572.699 -68.0788" stroke="#1AB78D" stroke-width="0.3" stroke-miterlimit="10"/>
<path d="M252.333 436.914C235.993 242.555 275.693 173.505 318.694 148.456C365.635 121.111 412.162 148.825 464.873 108.147C526.701 60.4198 533.418 -60.7005 575.145 -72.1002" stroke="#1AB78D" stroke-width="0.3" stroke-miterlimit="10"/>
</svg>
