<svg width="20" height="20" viewBox="0 0 20 20" fill="none" xmlns="http://www.w3.org/2000/svg">
<path d="M7.49996 4.18891C6.1862 3.83605 3.87673 2.88364 2.63467 3.58453C1.34395 4.31287 1.34395 9.0208 2.63467 9.74914C3.87673 10.45 6.1862 9.49757 7.49996 9.14471" stroke="#222222" stroke-width="1.5" stroke-linejoin="round"/>
<path d="M7.49996 4.18891C6.1862 3.83605 3.87673 2.88364 2.63467 3.58453C1.34395 4.31287 1.34395 9.0208 2.63467 9.74914C3.87673 10.45 6.1862 9.49757 7.49996 9.14471" stroke="black" stroke-opacity="0.2" stroke-width="1.5" stroke-linejoin="round"/>
<path d="M7.49996 4.18891C6.1862 3.83605 3.87673 2.88364 2.63467 3.58453C1.34395 4.31287 1.34395 9.0208 2.63467 9.74914C3.87673 10.45 6.1862 9.49757 7.49996 9.14471" stroke="black" stroke-opacity="0.2" stroke-width="1.5" stroke-linejoin="round"/>
<path d="M12.4999 4.18891C13.8137 3.83605 16.1232 2.88364 17.3652 3.58453C18.6559 4.31287 18.6559 9.0208 17.3652 9.74914C16.1232 10.45 13.8137 9.49757 12.4999 9.14471" stroke="#222222" stroke-width="1.5" stroke-linejoin="round"/>
<path d="M12.4999 4.18891C13.8137 3.83605 16.1232 2.88364 17.3652 3.58453C18.6559 4.31287 18.6559 9.0208 17.3652 9.74914C16.1232 10.45 13.8137 9.49757 12.4999 9.14471" stroke="black" stroke-opacity="0.2" stroke-width="1.5" stroke-linejoin="round"/>
<path d="M12.4999 4.18891C13.8137 3.83605 16.1232 2.88364 17.3652 3.58453C18.6559 4.31287 18.6559 9.0208 17.3652 9.74914C16.1232 10.45 13.8137 9.49757 12.4999 9.14471" stroke="black" stroke-opacity="0.2" stroke-width="1.5" stroke-linejoin="round"/>
<circle cx="9.99996" cy="6.66683" r="3.33333" stroke="#222222" stroke-width="1.5" stroke-linejoin="round"/>
<circle cx="9.99996" cy="6.66683" r="3.33333" stroke="black" stroke-opacity="0.2" stroke-width="1.5" stroke-linejoin="round"/>
<circle cx="9.99996" cy="6.66683" r="3.33333" stroke="black" stroke-opacity="0.2" stroke-width="1.5" stroke-linejoin="round"/>
<path d="M8.14366 9.16699L6.95425 14.4797C6.67809 15.7133 6.54 16.33 6.82039 16.531C7.77858 17.2176 8.96561 15.0816 9.99996 15.0816C10.9416 15.0816 12.3474 17.1272 13.1795 16.531C13.4599 16.33 13.3218 15.7133 13.0457 14.4797L11.8563 9.16699" stroke="#222222" stroke-width="1.5" stroke-linejoin="round"/>
<path d="M8.14366 9.16699L6.95425 14.4797C6.67809 15.7133 6.54 16.33 6.82039 16.531C7.77858 17.2176 8.96561 15.0816 9.99996 15.0816C10.9416 15.0816 12.3474 17.1272 13.1795 16.531C13.4599 16.33 13.3218 15.7133 13.0457 14.4797L11.8563 9.16699" stroke="black" stroke-opacity="0.2" stroke-width="1.5" stroke-linejoin="round"/>
<path d="M8.14366 9.16699L6.95425 14.4797C6.67809 15.7133 6.54 16.33 6.82039 16.531C7.77858 17.2176 8.96561 15.0816 9.99996 15.0816C10.9416 15.0816 12.3474 17.1272 13.1795 16.531C13.4599 16.33 13.3218 15.7133 13.0457 14.4797L11.8563 9.16699" stroke="black" stroke-opacity="0.2" stroke-width="1.5" stroke-linejoin="round"/>
</svg>
