<svg width="20" height="20" viewBox="0 0 20 20" fill="none" xmlns="http://www.w3.org/2000/svg">
<path d="M2.08337 10.0002C2.08337 6.26821 2.08337 4.40223 3.24274 3.24287C4.40211 2.0835 6.26809 2.0835 10 2.0835C13.732 2.0835 15.598 2.0835 16.7573 3.24287C17.9167 4.40223 17.9167 6.26821 17.9167 10.0002C17.9167 13.7321 17.9167 15.5981 16.7573 16.7575C15.598 17.9168 13.732 17.9168 10 17.9168C6.26809 17.9168 4.40211 17.9168 3.24274 16.7575C2.08337 15.5981 2.08337 13.7321 2.08337 10.0002Z" stroke="white" stroke-width="1.5"/>
<path d="M6.66675 13.4168C6.25253 13.4168 5.91675 13.7526 5.91675 14.1668C5.91675 14.581 6.25253 14.9168 6.66675 14.9168L6.66675 13.4168ZM13.3334 14.9168C13.7476 14.9168 14.0834 14.581 14.0834 14.1668C14.0834 13.7526 13.7476 13.4168 13.3334 13.4168L13.3334 14.9168ZM12.6225 10.3686C12.9105 10.0708 12.9026 9.59603 12.6048 9.30808C12.307 9.02013 11.8322 9.02807 11.5443 9.32582L12.6225 10.3686ZM11.1049 10.859L11.6441 11.3804L11.6441 11.3804L11.1049 10.859ZM8.89523 10.859L8.3561 11.3804L8.3561 11.3804L8.89523 10.859ZM8.45588 9.32582C8.16793 9.02807 7.69312 9.02013 7.39537 9.30808C7.09761 9.59603 7.08967 10.0708 7.37762 10.3686L8.45588 9.32582ZM10.7501 5.8335C10.7501 5.41928 10.4143 5.0835 10.0001 5.0835C9.58587 5.0835 9.25008 5.41928 9.25008 5.8335L10.7501 5.8335ZM6.66675 14.9168L13.3334 14.9168L13.3334 13.4168L6.66675 13.4168L6.66675 14.9168ZM11.5443 9.32582L10.5658 10.3376L11.6441 11.3804L12.6225 10.3686L11.5443 9.32582ZM9.43436 10.3376L8.45588 9.32582L7.37762 10.3686L8.3561 11.3804L9.43436 10.3376ZM10.5658 10.3376C10.2905 10.6223 10.1357 10.7801 10.014 10.8761C9.90855 10.9593 9.92413 10.9168 10.0001 10.9168L10.0001 12.4168C10.3996 12.4168 10.7072 12.2398 10.9431 12.0537C11.1628 11.8804 11.3985 11.6342 11.6441 11.3804L10.5658 10.3376ZM8.3561 11.3804C8.60161 11.6342 8.83741 11.8804 9.05707 12.0537C9.29294 12.2398 9.60053 12.4168 10.0001 12.4168L10.0001 10.9168C10.076 10.9168 10.0916 10.9593 9.98616 10.8761C9.8645 10.7801 9.70967 10.6223 9.43436 10.3376L8.3561 11.3804ZM10.7501 11.6668L10.7501 5.8335L9.25008 5.8335L9.25008 11.6668L10.7501 11.6668Z" fill="white"/>
</svg>
