<svg width="35" height="35" viewBox="0 0 35 35" fill="none" xmlns="http://www.w3.org/2000/svg">
<circle cx="17.5" cy="17.5" r="17.5" fill="#C5E5FF"/>
<path d="M22.5 9.5V11M13.5 9.5V11" stroke="#00549A" stroke-width="1.5" stroke-linecap="round" stroke-linejoin="round"/>
<path d="M17.9966 17.75H18.0034M17.9966 20.75H18.0034M20.9933 17.75H21M15 17.75H15.0067M15 20.75H15.0067" stroke="#00549A" stroke-width="1.5" stroke-linecap="round" stroke-linejoin="round"/>
<path d="M11.625 14H24.375" stroke="#00549A" stroke-width="1.5" stroke-linecap="round" stroke-linejoin="round"/>
<path d="M10.875 17.1824C10.875 13.9145 10.875 12.2805 11.8141 11.2652C12.7532 10.25 14.2646 10.25 17.2875 10.25H18.7125C21.7354 10.25 23.2468 10.25 24.1859 11.2652C25.125 12.2805 25.125 13.9145 25.125 17.1824V17.5676C25.125 20.8355 25.125 22.4695 24.1859 23.4848C23.2468 24.5 21.7354 24.5 18.7125 24.5H17.2875C14.2646 24.5 12.7532 24.5 11.8141 23.4848C10.875 22.4695 10.875 20.8355 10.875 17.5676V17.1824Z" stroke="#00549A" stroke-width="1.5" stroke-linecap="round" stroke-linejoin="round"/>
<path d="M11.25 14H24.75" stroke="#00549A" stroke-width="1.5" stroke-linecap="round" stroke-linejoin="round"/>
</svg>
