<svg width="20" height="20" viewBox="0 0 20 20" fill="none" xmlns="http://www.w3.org/2000/svg">
<path d="M3.33337 9.1665V12.4998C3.33337 15.2497 3.33337 16.6246 4.18765 17.4789C5.04192 18.3332 6.41685 18.3332 9.16671 18.3332H10.8334C13.5832 18.3332 14.9582 18.3332 15.8124 17.4789C16.6667 16.6246 16.6667 15.2497 16.6667 12.4998V9.1665" stroke="white" stroke-width="1.5" stroke-linecap="round" stroke-linejoin="round"/>
<path d="M2.5 7.49967C2.5 6.8766 2.5 6.56506 2.66747 6.33301C2.77718 6.18099 2.93498 6.05475 3.125 5.96698C3.41506 5.83301 3.80449 5.83301 4.58333 5.83301H15.4167C16.1955 5.83301 16.5849 5.83301 16.875 5.96698C17.065 6.05475 17.2228 6.18099 17.3325 6.33301C17.5 6.56506 17.5 6.8766 17.5 7.49967C17.5 8.12275 17.5 8.43429 17.3325 8.66634C17.2228 8.81836 17.065 8.9446 16.875 9.03237C16.5849 9.16634 16.1955 9.16634 15.4167 9.16634H4.58333C3.80449 9.16634 3.41506 9.16634 3.125 9.03237C2.93498 8.9446 2.77718 8.81836 2.66747 8.66634C2.5 8.43429 2.5 8.12275 2.5 7.49967Z" stroke="white" stroke-width="1.5" stroke-linejoin="round"/>
<path d="M5 3.1546C5 2.33275 5.66624 1.6665 6.4881 1.6665H6.78571C8.56092 1.6665 10 3.10559 10 4.88079V5.83317H7.67857C6.19924 5.83317 5 4.63393 5 3.1546Z" stroke="white" stroke-width="1.5" stroke-linejoin="round"/>
<path d="M15 3.1546C15 2.33275 14.3338 1.6665 13.5119 1.6665H13.2143C11.4391 1.6665 10 3.10559 10 4.88079V5.83317H12.3214C13.8008 5.83317 15 4.63393 15 3.1546Z" stroke="white" stroke-width="1.5" stroke-linejoin="round"/>
<path d="M10 9.1665L10 18.3332" stroke="white" stroke-width="1.5" stroke-linecap="round" stroke-linejoin="round"/>
</svg>
