<svg width="246" height="51" viewBox="0 0 246 51" fill="none" xmlns="http://www.w3.org/2000/svg">
<path d="M24.5116 14.6279H13.1783V10.8721C13.1783 9.94961 13.5077 9.09302 14.2326 8.43411C14.8915 7.77519 15.7481 7.44574 16.8023 7.44574C17.9884 7.44574 18.9767 7.64341 19.7674 8.03876V0.92248L19.1085 0.724805C18.6473 0.593022 17.9225 0.395349 17 0.263566C16.0775 0.131783 15.2209 0 14.3643 0C8.17054 0 5.07364 3.49225 5.07364 10.5426V14.562H0V22.0736H5.07364V44.1473H13.1783V22.0736H19.2403C19.8992 19.8992 21.0194 17.9225 22.6667 16.2093C23.2597 15.6163 23.8527 15.0891 24.5116 14.6279Z" fill="#1CB78D"/>
<path d="M81.903 9.62031C83.3526 9.62031 84.5386 9.22497 85.3952 8.36838C86.2518 7.51179 86.7131 6.39163 86.7131 5.00791C86.7131 3.62419 86.2518 2.43814 85.3952 1.64745C84.5386 0.790858 83.3526 0.395508 81.903 0.395508C80.5852 0.395508 79.465 0.790858 78.6743 1.64745C77.8836 2.50404 77.4224 3.62419 77.4224 5.00791C77.4224 6.39163 77.8177 7.51179 78.6084 8.36838C79.465 9.22497 80.5852 9.62031 81.903 9.62031Z" fill="#00549A"/>
<path d="M36.043 34.7909C34.3298 34.7909 32.8802 34.1979 31.7601 33.0119C31.5624 32.8142 31.4306 32.6165 31.2329 32.4188C30.4422 31.3646 30.0469 30.0468 30.0469 28.5971C30.0469 26.884 30.6399 25.3685 31.7601 24.1824C32.8802 22.9964 34.3298 22.4033 36.043 22.4033H36.5701H45.9267V13.9692H35.7794C31.6942 13.9692 28.2678 15.353 25.5663 18.1863C22.8647 21.0196 21.5469 24.446 21.5469 28.5971C21.5469 32.7483 22.8647 36.2406 25.5663 39.008C25.6321 39.0739 25.698 39.1398 25.7639 39.2057C28.3996 41.9072 31.7601 43.225 35.7794 43.225H45.9267V34.9227V34.7909H36.043Z" fill="#1CB78D"/>
<path d="M62.7946 24.4458C62.0698 23.9187 61.1473 23.721 60.2249 23.5892C60.0272 23.5892 59.8295 23.5233 59.5659 23.5233C58.1163 23.4574 56.6667 23.5892 55.4148 23.5892H48.6938V33.6047H52.0543H56.4031C57.4574 33.6047 58.5776 33.7365 59.6977 33.6706C60.0931 33.6706 60.4884 33.6047 60.8838 33.5388C61.4768 33.4071 62.0698 33.2094 62.5969 32.9458C64.1125 32.0892 65.1667 30.376 65.1667 28.597C65.0349 26.9497 64.1783 25.3683 62.7946 24.4458Z" fill="#1CB78D"/>
<path d="M70.8993 18.1863C68.1977 15.353 64.7714 13.9692 60.6861 13.9692H52.1202H49.7481H48.6938V22.4033H52.1202H57.2597H59.6318H60.4225C62.1357 22.4033 63.5853 22.9964 64.7055 24.1824C65.8256 25.3685 66.4187 26.884 66.4187 28.5971C66.4187 30.3103 65.8256 31.8258 64.7055 33.0119C64.376 33.3413 64.0466 33.6049 63.6512 33.8685C63.5853 33.9344 63.5194 33.9344 63.4535 34.0002C63.3876 34.0002 63.3876 34.0661 63.3217 34.0661C63.3217 34.0661 63.2559 34.0661 63.2559 34.132C61.5427 35.0545 59.5659 34.9227 59.5659 34.9227H48.6938V51.0002H57.2597V43.225H60.752C64.8373 43.225 68.2636 41.8413 70.9652 39.008C73.6667 36.1747 74.9845 32.7483 74.9845 28.5971C74.9845 24.446 73.6008 20.9537 70.8993 18.1863Z" fill="#00549A"/>
<path d="M81.969 13.7054C79.7946 11.531 77.2249 10.2132 74.1938 9.75195V18.9109C74.8528 19.1744 75.4458 19.5698 75.9729 20.0969C77.159 21.283 77.752 22.7326 77.752 24.5116V25.1047V44.1473H86.1202V24.1822C86.1202 19.9651 84.7365 16.4729 81.969 13.7054Z" fill="#00549A"/>
<path d="M96.9924 14.5093H96.3335V44.1275H96.9924V14.5093Z" fill="#1CB78D"/>
<path d="M111.225 21.013H107.146V23.563H110.625V24.7029H107.146V28.2413H105.868V19.873H111.225V21.013Z" fill="#58595B"/>
<path d="M118.104 28.2413H112.747V19.873H118.104V21.013H114.025V23.451H117.504V24.5843H114.025V27.1013H118.104V28.2413Z" fill="#58595B"/>
<path d="M125.8 24.0044V24.4261C125.8 24.8808 125.78 25.2696 125.747 25.6122C125.714 25.9482 125.635 26.2777 125.51 26.6072C125.385 26.93 125.2 27.2199 124.95 27.4703C124.423 27.9975 123.705 28.2544 122.782 28.2544H119.837V19.873H122.782C123.705 19.873 124.423 20.1366 124.95 20.6572C125.2 20.9075 125.385 21.1843 125.51 21.494C125.635 21.8037 125.714 22.1199 125.747 22.4428C125.78 22.7657 125.8 23.1413 125.8 23.5761V24.0044ZM124.528 24.0044C124.528 23.5234 124.522 23.1479 124.502 22.8909C124.489 22.6273 124.443 22.3835 124.377 22.1529C124.311 21.9223 124.212 21.7312 124.074 21.5862C123.731 21.2106 123.257 21.0196 122.65 21.0196H121.109V27.1079H122.65C123.257 27.1079 123.731 26.9234 124.074 26.5479C124.271 26.3304 124.397 26.0339 124.449 25.6583C124.509 25.2761 124.528 24.7292 124.528 24.0044Z" fill="#58595B"/>
<path d="M133.028 28.2413H127.671V19.873H133.028V21.013H128.95V23.451H132.429V24.5843H128.95V27.1013H133.028V28.2413Z" fill="#58595B"/>
<path d="M140.869 28.2413H139.387L137.628 24.7227H136.04V28.2413H134.761V19.873H138.016C138.53 19.873 138.985 19.9785 139.38 20.1893C139.776 20.4002 140.079 20.6901 140.296 21.0591C140.507 21.4281 140.612 21.8498 140.612 22.3242C140.612 22.8975 140.461 23.3785 140.151 23.7672C139.841 24.1494 139.44 24.413 138.945 24.5513L140.869 28.2413ZM139.341 22.3308C139.341 21.9223 139.209 21.5994 138.952 21.3622C138.695 21.125 138.346 21.013 137.917 21.013H136.04V23.6289H137.917C138.346 23.6289 138.688 23.5103 138.952 23.2796C139.215 23.049 139.341 22.7327 139.341 22.3308Z" fill="#58595B"/>
<path d="M148.631 28.2413H147.28L146.707 26.561H143.399L142.826 28.2413H141.469L144.539 19.873H145.561L148.631 28.2413ZM146.351 25.4804L145.086 21.7641L143.782 25.4804H146.351Z" fill="#58595B"/>
<path d="M154.957 21.013H152.651V28.2413H151.379V21.013H149.073V19.873H154.95V21.013H154.957Z" fill="#58595B"/>
<path d="M157.678 28.2413H156.4V19.873H157.678V28.2413Z" fill="#58595B"/>
<path d="M165.579 24.0571C165.579 24.716 165.565 25.2234 165.539 25.5726C165.513 25.9219 165.447 26.2513 165.328 26.561C165.216 26.8707 165.032 27.154 164.775 27.4176C164.175 28.0172 163.437 28.3137 162.567 28.3137C161.698 28.3137 160.96 28.0172 160.367 27.4242C160.103 27.154 159.919 26.8707 159.807 26.5676C159.695 26.2645 159.622 25.935 159.596 25.5858C159.569 25.23 159.556 24.7226 159.556 24.0637C159.556 23.5564 159.563 23.1478 159.576 22.8513C159.589 22.5548 159.622 22.2781 159.668 22.0277C159.714 21.7773 159.793 21.5467 159.905 21.3292C160.017 21.1118 160.169 20.9009 160.373 20.6967C160.966 20.1036 161.698 19.8071 162.574 19.8071C163.444 19.8071 164.182 20.1036 164.781 20.6967C165.038 20.9668 165.223 21.2502 165.335 21.5533C165.447 21.8564 165.519 22.1858 165.539 22.535C165.565 22.8909 165.579 23.3916 165.579 24.0571ZM164.307 24.0571C164.307 23.2269 164.274 22.6405 164.215 22.2978C164.149 21.9552 164.017 21.6784 163.813 21.461C163.668 21.3029 163.483 21.1777 163.259 21.0854C163.035 20.9932 162.805 20.9471 162.567 20.9471C162.324 20.9471 162.093 20.9932 161.869 21.0854C161.645 21.1777 161.46 21.3029 161.315 21.461C161.111 21.685 160.979 21.9684 160.914 22.3044C160.848 22.6405 160.821 23.2269 160.821 24.0571C160.821 24.4986 160.828 24.8544 160.841 25.118C160.854 25.3815 160.881 25.6188 160.92 25.8164C160.96 26.0141 161.006 26.1722 161.058 26.2777C161.111 26.3897 161.197 26.5149 161.315 26.6533C161.467 26.8114 161.658 26.9366 161.876 27.0288C162.093 27.1211 162.324 27.1672 162.567 27.1672C163.075 27.1672 163.49 26.9959 163.813 26.6533C163.951 26.5017 164.057 26.337 164.129 26.1459C164.202 25.9548 164.248 25.6978 164.274 25.3684C164.294 25.0389 164.307 24.604 164.307 24.0571Z" fill="#58595B"/>
<path d="M173.762 28.2413H172.596L168.735 22.3506V28.2413H167.457V19.873H168.629L172.497 25.7506V19.873H173.769V28.2413H173.762Z" fill="#58595B"/>
<path d="M184.49 24.0571C184.49 24.716 184.477 25.2234 184.45 25.5726C184.424 25.9219 184.358 26.2513 184.239 26.561C184.127 26.8707 183.943 27.154 183.686 27.4176C183.086 28.0172 182.348 28.3137 181.479 28.3137C180.609 28.3137 179.871 28.0172 179.278 27.4242C179.014 27.154 178.83 26.8707 178.718 26.5676C178.606 26.2645 178.533 25.935 178.507 25.5858C178.48 25.23 178.467 24.7226 178.467 24.0637C178.467 23.5564 178.474 23.1478 178.487 22.8513C178.5 22.5548 178.533 22.2781 178.579 22.0277C178.625 21.7773 178.704 21.5467 178.817 21.3292C178.929 21.1118 179.08 20.9009 179.284 20.6967C179.877 20.1036 180.609 19.8071 181.485 19.8071C182.355 19.8071 183.093 20.1036 183.692 20.6967C183.949 20.9668 184.134 21.2502 184.246 21.5533C184.358 21.8564 184.43 22.1858 184.45 22.535C184.477 22.8909 184.49 23.3916 184.49 24.0571ZM183.225 24.0571C183.225 23.2269 183.192 22.6405 183.132 22.2978C183.067 21.9552 182.935 21.6784 182.73 21.461C182.586 21.3029 182.401 21.1777 182.177 21.0854C181.953 20.9932 181.722 20.9471 181.485 20.9471C181.241 20.9471 181.011 20.9932 180.787 21.0854C180.563 21.1777 180.378 21.3029 180.233 21.461C180.029 21.685 179.897 21.9684 179.831 22.3044C179.765 22.6405 179.739 23.2269 179.739 24.0571C179.739 24.4986 179.746 24.8544 179.759 25.118C179.772 25.3815 179.798 25.6188 179.838 25.8164C179.877 26.0141 179.923 26.1722 179.976 26.2777C180.029 26.3897 180.115 26.5149 180.233 26.6533C180.385 26.8114 180.576 26.9366 180.793 27.0288C181.011 27.1211 181.241 27.1672 181.485 27.1672C181.992 27.1672 182.408 26.9959 182.73 26.6533C182.869 26.5017 182.974 26.337 183.047 26.1459C183.119 25.9548 183.165 25.6978 183.192 25.3684C183.211 25.0389 183.225 24.604 183.225 24.0571Z" fill="#58595B"/>
<path d="M191.718 21.013H187.639V23.563H191.118V24.7029H187.639V28.2413H186.361V19.873H191.718V21.013Z" fill="#58595B"/>
<path d="M201.766 25.7374C201.7 26.1525 201.575 26.5215 201.397 26.8443C201.219 27.1672 201.002 27.4374 200.745 27.6548C200.488 27.8722 200.191 28.037 199.855 28.149C199.519 28.261 199.163 28.3137 198.781 28.3137C198.491 28.3137 198.215 28.2808 197.958 28.2149C197.701 28.149 197.45 28.0436 197.213 27.9052C196.976 27.7668 196.765 27.6087 196.58 27.4242C196.317 27.154 196.132 26.8707 196.02 26.5676C195.908 26.2645 195.836 25.935 195.81 25.5858C195.783 25.23 195.77 24.7226 195.77 24.0637C195.77 23.5564 195.777 23.1478 195.79 22.8513C195.803 22.5548 195.836 22.2781 195.882 22.0277C195.928 21.7773 196.007 21.5467 196.119 21.3292C196.231 21.1118 196.383 20.9009 196.587 20.6967C196.877 20.4067 197.206 20.1827 197.582 20.0312C197.951 19.8796 198.353 19.8071 198.788 19.8071C199.572 19.8071 200.231 20.0312 200.758 20.4726C201.285 20.9141 201.628 21.5533 201.773 22.3835H200.475C200.376 21.942 200.178 21.5928 199.895 21.3358C199.605 21.0788 199.236 20.9471 198.788 20.9471C198.544 20.9471 198.313 20.9932 198.096 21.0788C197.879 21.1645 197.694 21.2897 197.549 21.4544C197.437 21.5796 197.351 21.6982 197.292 21.8234C197.233 21.9486 197.18 22.1133 197.141 22.3176C197.101 22.5219 197.075 22.7525 197.061 23.0095C197.048 23.2664 197.042 23.6157 197.042 24.0637C197.042 24.5052 197.048 24.8544 197.061 25.1114C197.075 25.3684 197.101 25.5924 197.141 25.8033C197.18 26.0075 197.226 26.1722 197.292 26.2909C197.351 26.4095 197.437 26.5412 197.549 26.673C197.701 26.8312 197.879 26.9498 198.096 27.042C198.313 27.1343 198.544 27.1738 198.788 27.1738C199.091 27.1738 199.355 27.1145 199.585 26.9959C199.816 26.8773 200.007 26.7126 200.158 26.4885C200.31 26.2711 200.422 26.0207 200.488 25.7374H201.766Z" fill="#58595B"/>
<path d="M208.764 28.2413H203.453V19.873H204.731V27.1013H208.764V28.2413Z" fill="#58595B"/>
<path d="M211.485 28.2413H210.207V19.873H211.485V28.2413Z" fill="#58595B"/>
<path d="M219.965 28.2413H218.799L214.938 22.3506V28.2413H213.66V19.873H214.833L218.7 25.7506V19.873H219.972V28.2413H219.965Z" fill="#58595B"/>
<path d="M223.431 28.2413H222.153V19.873H223.431V28.2413Z" fill="#58595B"/>
<path d="M231.305 25.7374C231.239 26.1525 231.114 26.5215 230.936 26.8443C230.758 27.1672 230.541 27.4374 230.284 27.6548C230.027 27.8722 229.73 28.037 229.394 28.149C229.058 28.261 228.702 28.3137 228.32 28.3137C228.03 28.3137 227.754 28.2808 227.497 28.2149C227.24 28.149 226.989 28.0436 226.752 27.9052C226.515 27.7668 226.304 27.6087 226.12 27.4242C225.856 27.154 225.671 26.8707 225.559 26.5676C225.447 26.2645 225.375 25.935 225.349 25.5858C225.322 25.23 225.309 24.7226 225.309 24.0637C225.309 23.5564 225.316 23.1478 225.329 22.8513C225.342 22.5548 225.375 22.2781 225.421 22.0277C225.467 21.7773 225.546 21.5467 225.658 21.3292C225.77 21.1118 225.922 20.9009 226.126 20.6967C226.416 20.4067 226.746 20.1827 227.121 20.0312C227.49 19.8796 227.892 19.8071 228.327 19.8071C229.111 19.8071 229.77 20.0312 230.297 20.4726C230.824 20.9141 231.167 21.5533 231.312 22.3835H230.014C229.915 21.942 229.717 21.5928 229.434 21.3358C229.144 21.0788 228.775 20.9471 228.327 20.9471C228.083 20.9471 227.852 20.9932 227.635 21.0788C227.418 21.1645 227.233 21.2897 227.088 21.4544C226.976 21.5796 226.89 21.6982 226.831 21.8234C226.772 21.9486 226.719 22.1133 226.68 22.3176C226.64 22.5219 226.614 22.7525 226.601 23.0095C226.587 23.2664 226.581 23.6157 226.581 24.0637C226.581 24.5052 226.587 24.8544 226.601 25.1114C226.614 25.3684 226.64 25.5924 226.68 25.8033C226.719 26.0075 226.765 26.1722 226.831 26.2909C226.89 26.4095 226.976 26.5412 227.088 26.673C227.24 26.8312 227.418 26.9498 227.635 27.042C227.852 27.1343 228.083 27.1738 228.327 27.1738C228.63 27.1738 228.894 27.1145 229.124 26.9959C229.355 26.8773 229.546 26.7126 229.697 26.4885C229.849 26.2711 229.961 26.0207 230.027 25.7374H231.305Z" fill="#58595B"/>
<path d="M239.166 28.2413H237.816L237.242 26.561H233.935L233.361 28.2413H232.004L235.074 19.873H236.096L239.166 28.2413ZM236.88 25.4804L235.615 21.7641L234.31 25.4804H236.88Z" fill="#58595B"/>
<path d="M245.65 28.2413H240.339V19.873H241.618V27.1013H245.65V28.2413Z" fill="#58595B"/>
<path d="M111.62 35.3572C111.62 35.8316 111.515 36.2599 111.297 36.6354C111.086 37.011 110.777 37.3075 110.375 37.525C109.973 37.7424 109.511 37.8479 108.991 37.8479H107.126V41.0765H105.868V32.873H108.984C109.373 32.873 109.729 32.9389 110.065 33.0641C110.401 33.1893 110.684 33.3672 110.908 33.5913C111.139 33.8153 111.31 34.0723 111.436 34.3754C111.561 34.6653 111.62 34.9948 111.62 35.3572ZM110.375 35.3637C110.375 34.9354 110.243 34.5994 109.979 34.3556C109.716 34.1118 109.36 33.9932 108.925 33.9932H107.126V36.7211H108.925C109.367 36.7211 109.722 36.6025 109.986 36.3587C110.243 36.1215 110.375 35.7854 110.375 35.3637Z" fill="#58595B"/>
<path d="M119.817 41.0831H118.572V37.4986H115.238V41.0831H113.979V32.873H115.238V36.3785H118.572V32.873H119.817V41.0831Z" fill="#58595B"/>
<path d="M128.871 41.0831H127.54L126.98 39.4358H123.738L123.178 41.0831H121.847L124.858 32.873H125.859L128.871 41.0831ZM126.63 38.375L125.385 34.7312L124.107 38.375H126.63Z" fill="#58595B"/>
<path d="M136.883 41.0831H135.433L133.707 37.6304H132.152V41.0831H130.894V32.873H134.083C134.583 32.873 135.032 32.9785 135.42 33.1827C135.809 33.387 136.106 33.6703 136.316 34.0327C136.527 34.3951 136.626 34.8103 136.626 35.2781C136.626 35.8448 136.475 36.3126 136.171 36.6882C135.868 37.0637 135.473 37.3207 134.992 37.4591L136.883 41.0831ZM135.387 35.2847C135.387 34.8827 135.262 34.5665 135.005 34.3358C134.755 34.1052 134.412 33.9932 133.99 33.9932H132.152V36.563H133.99C134.412 36.563 134.748 36.451 135.005 36.2203C135.256 35.9897 135.387 35.68 135.387 35.2847Z" fill="#58595B"/>
<path d="M146.556 41.0831H145.297V35.5944L143.413 39.6006H142.49L140.553 35.5944V41.0831H139.294V32.873H140.553L142.951 37.9796L145.297 32.873H146.556V41.0831Z" fill="#58595B"/>
<path d="M155.596 41.0831H154.265L153.705 39.4358H150.463L149.903 41.0831H148.572L151.584 32.873H152.585L155.596 41.0831ZM153.363 38.375L152.117 34.7312L150.839 38.375H153.363Z" fill="#58595B"/>
<path d="M163.206 38.6253C163.14 39.0339 163.015 39.3897 162.844 39.7126C162.673 40.0288 162.455 40.2924 162.205 40.5098C161.954 40.7207 161.658 40.8854 161.335 40.9908C161.006 41.1029 160.656 41.1556 160.287 41.1556C160.004 41.1556 159.734 41.1226 159.477 41.0567C159.227 40.9908 158.983 40.892 158.746 40.7536C158.515 40.6153 158.304 40.4637 158.126 40.2792C157.869 40.0157 157.685 39.7389 157.573 39.4424C157.461 39.1459 157.388 38.823 157.362 38.4738C157.335 38.1246 157.322 37.6304 157.322 36.9781C157.322 36.4773 157.329 36.0819 157.342 35.792C157.355 35.5021 157.388 35.2319 157.434 34.9881C157.48 34.7443 157.559 34.5137 157.665 34.3029C157.77 34.092 157.922 33.8812 158.126 33.6835C158.409 33.4002 158.739 33.1827 159.101 33.0312C159.464 32.8796 159.859 32.8071 160.281 32.8071C161.052 32.8071 161.697 33.0246 162.218 33.4595C162.739 33.8943 163.068 34.5203 163.213 35.3308H161.941C161.842 34.9025 161.651 34.5598 161.368 34.3029C161.085 34.0525 160.722 33.9207 160.281 33.9207C160.044 33.9207 159.813 33.9668 159.602 34.0525C159.391 34.1381 159.213 34.2633 159.062 34.4149C158.95 34.5335 158.871 34.6587 158.811 34.7773C158.752 34.8959 158.699 35.0606 158.666 35.2583C158.627 35.456 158.601 35.6866 158.587 35.937C158.574 36.1874 158.568 36.53 158.568 36.9715C158.568 37.4064 158.574 37.749 158.587 37.9994C158.601 38.2498 158.627 38.4738 158.666 38.6781C158.706 38.8823 158.752 39.0405 158.811 39.1591C158.871 39.2777 158.956 39.4029 159.062 39.5346C159.207 39.6862 159.385 39.8114 159.602 39.897C159.813 39.9827 160.044 40.0288 160.281 40.0288C160.577 40.0288 160.841 39.9695 161.065 39.8575C161.289 39.7389 161.48 39.5742 161.625 39.3633C161.777 39.1525 161.882 38.9021 161.948 38.6253H163.206Z" fill="#58595B"/>
<path d="M166.982 41.0831H165.724V32.873H166.982V41.0831Z" fill="#58595B"/>
<path d="M175.119 38.7376C175.119 39.1 175.047 39.436 174.909 39.7391C174.764 40.0422 174.559 40.2992 174.289 40.5101C174.019 40.7209 173.709 40.8791 173.354 40.9911C172.998 41.0965 172.602 41.1492 172.174 41.1492C171.548 41.1492 171.001 41.0636 170.54 40.8988C170.079 40.7341 169.65 40.4508 169.262 40.062L170.092 39.2384C170.276 39.4229 170.481 39.581 170.698 39.6996C170.916 39.8182 171.153 39.9039 171.397 39.95C171.647 39.9961 171.911 40.0225 172.187 40.0225C172.714 40.0225 173.13 39.9105 173.433 39.693C173.736 39.469 173.881 39.1659 173.881 38.764C173.881 38.395 173.769 38.1116 173.551 37.914C173.452 37.8151 173.34 37.7426 173.209 37.6899C173.077 37.6372 172.892 37.5977 172.655 37.5647L171.687 37.4264C171.021 37.3341 170.5 37.1101 170.125 36.7674C169.73 36.3984 169.525 35.8713 169.525 35.1992C169.525 34.7248 169.637 34.3031 169.855 33.9407C170.079 33.5783 170.395 33.295 170.804 33.0907C171.219 32.893 171.7 32.7876 172.26 32.7876C172.813 32.7876 173.288 32.8601 173.69 33.0116C174.092 33.1632 174.467 33.4004 174.81 33.7233L174.013 34.514C173.848 34.3558 173.67 34.224 173.485 34.1318C173.294 34.0395 173.103 33.9736 172.899 33.9341C172.695 33.8946 172.471 33.8748 172.227 33.8748C171.917 33.8748 171.647 33.9275 171.423 34.0395C171.199 34.1515 171.028 34.2965 170.909 34.4942C170.79 34.6919 170.731 34.9093 170.731 35.1531C170.731 35.476 170.837 35.7329 171.041 35.9174C171.14 36.0031 171.278 36.0822 171.443 36.1481C171.607 36.2205 171.785 36.2667 171.97 36.293L172.906 36.4314C173.281 36.4907 173.591 36.5632 173.828 36.662C174.065 36.7609 174.269 36.886 174.441 37.0442C174.895 37.4461 175.119 38.0062 175.119 38.7376Z" fill="#58595B"/>
<path d="M182.691 33.9932H180.43V41.0831H179.185V33.9932H176.918V32.873H182.684V33.9932H182.691Z" fill="#58595B"/>
<path d="M190.11 38.7376C190.11 39.1 190.038 39.436 189.899 39.7391C189.754 40.0422 189.55 40.2992 189.28 40.5101C189.01 40.7209 188.7 40.8791 188.344 40.9911C187.989 41.0965 187.593 41.1492 187.165 41.1492C186.539 41.1492 185.992 41.0636 185.531 40.8988C185.069 40.7341 184.641 40.4508 184.252 40.062L185.083 39.2384C185.267 39.4229 185.471 39.581 185.689 39.6996C185.906 39.8182 186.144 39.9039 186.387 39.95C186.638 39.9961 186.901 40.0225 187.178 40.0225C187.705 40.0225 188.12 39.9105 188.423 39.693C188.726 39.469 188.871 39.1659 188.871 38.764C188.871 38.395 188.759 38.1116 188.542 37.914C188.443 37.8151 188.331 37.7426 188.199 37.6899C188.068 37.6372 187.883 37.5977 187.646 37.5647L186.677 37.4264C186.012 37.3341 185.491 37.1101 185.116 36.7674C184.72 36.3984 184.516 35.8713 184.516 35.1992C184.516 34.7248 184.628 34.3031 184.845 33.9407C185.069 33.5783 185.386 33.295 185.794 33.0907C186.209 32.893 186.69 32.7876 187.251 32.7876C187.804 32.7876 188.278 32.8601 188.68 33.0116C189.082 33.1632 189.458 33.4004 189.801 33.7233L189.003 34.514C188.839 34.3558 188.661 34.224 188.476 34.1318C188.285 34.0395 188.094 33.9736 187.89 33.9341C187.685 33.8946 187.461 33.8748 187.218 33.8748C186.908 33.8748 186.638 33.9275 186.414 34.0395C186.19 34.1515 186.018 34.2965 185.9 34.4942C185.781 34.6919 185.722 34.9093 185.722 35.1531C185.722 35.476 185.827 35.7329 186.032 35.9174C186.13 36.0031 186.269 36.0822 186.433 36.1481C186.598 36.2205 186.776 36.2667 186.961 36.293L187.896 36.4314C188.272 36.4907 188.582 36.5632 188.819 36.662C189.056 36.7609 189.26 36.886 189.432 37.0442C189.886 37.4461 190.11 38.0062 190.11 38.7376Z" fill="#58595B"/>
<path d="M197.523 41.0831H196.264V32.873H197.523V41.0831Z" fill="#58595B"/>
<path d="M206.715 41.0831H205.575L201.786 35.3044V41.0831H200.527V32.873H201.674L205.469 38.6386V32.873H206.715V41.0831Z" fill="#58595B"/>
<path d="M214.609 41.0831H213.35V32.873H214.609V41.0831Z" fill="#58595B"/>
<path d="M223.794 41.0831H222.654L218.865 35.3044V41.0831H217.606V32.873H218.753L222.548 38.6386V32.873H223.794V41.0831Z" fill="#58595B"/>
<path d="M232.643 36.9188V37.3273C232.643 37.7688 232.623 38.1575 232.59 38.487C232.558 38.8165 232.478 39.1393 232.36 39.4622C232.235 39.7785 232.057 40.0618 231.813 40.3056C231.299 40.8196 230.587 41.0765 229.691 41.0765H226.805V32.873H229.691C230.594 32.873 231.299 33.13 231.813 33.644C232.057 33.8878 232.241 34.1645 232.36 34.4676C232.485 34.7707 232.558 35.0804 232.59 35.3967C232.623 35.713 232.643 36.082 232.643 36.5037V36.9188ZM231.398 36.9254C231.398 36.451 231.391 36.0885 231.378 35.8316C231.365 35.5746 231.325 35.3308 231.259 35.1068C231.194 34.8827 231.095 34.6982 230.963 34.5533C230.627 34.1843 230.159 33.9932 229.566 33.9932H228.057V39.963H229.566C230.166 39.963 230.627 39.7785 230.963 39.4095C231.161 39.1986 231.279 38.9021 231.332 38.5397C231.378 38.1707 231.398 37.6304 231.398 36.9254Z" fill="#58595B"/>
<path d="M236.603 41.0831H235.345V32.873H236.603V41.0831Z" fill="#58595B"/>
<path d="M245.65 41.0831H244.319L243.759 39.4358H240.517L239.957 41.0831H238.626L241.637 32.873H242.639L245.65 41.0831ZM243.41 38.375L242.164 34.7312L240.886 38.375H243.41Z" fill="#58595B"/>
</svg>
