<svg width="2688" height="1610" viewBox="0 0 2688 1610" fill="none" xmlns="http://www.w3.org/2000/svg">
<path d="M2204.68 559.821C2126.93 352.772 1792.34 274.799 1564.19 320.403C1301.28 372.983 1243.24 576.998 1030.06 558.221C835.533 541.149 784.462 362.409 643.525 359.154C514.002 356.169 342.632 502.15 140.641 1103.59" stroke="#1AB78D" stroke-width="0.3" stroke-miterlimit="10"/>
<path d="M161.089 1123.9C360.904 531.016 531.445 380.791 661.643 378.602C758.166 377.103 813.559 458.161 901.593 513.136C945.772 541.647 996.2 559.173 1048.35 564.138C1219.2 580.524 1291.94 459.727 1453.6 383.447C1494.78 363.874 1538.3 349.168 1583.27 339.632C1811.6 290.439 2138.78 351.061 2219.51 549.483" stroke="#1AB78D" stroke-width="0.3" stroke-miterlimit="10"/>
<path d="M181.561 1144.14C379.208 559.846 548.815 405.435 679.435 398.157C775.452 392.814 832.039 469.288 919.445 520.747C964.21 547.826 1014.43 564.716 1066.27 570.131C1234.98 587.722 1309.95 477.137 1472.67 402.801C1514.01 383.819 1557.36 369.13 1602.03 358.968C1830.72 306.877 2150.29 349.42 2234 539.215" stroke="#1AB78D" stroke-width="0.3" stroke-miterlimit="10"/>
<path d="M201.982 1164.32C397.411 588.735 566.206 430.156 697.372 417.651C792.973 408.524 850.589 480.368 937.488 528.327C982.755 553.967 1032.73 570.244 1084.23 576.119C1250.94 594.888 1327.81 494.541 1491.78 422.151C1533.27 403.661 1576.49 388.94 1620.91 378.17C1849.84 322.783 2161.89 347.652 2248.58 528.818" stroke="#1AB78D" stroke-width="0.3" stroke-miterlimit="10"/>
<path d="M222.444 1184.67C415.679 617.574 583.528 454.929 715.351 437.175C810.432 424.321 869.264 491.501 955.593 535.857C1001.39 560.07 1051.21 575.744 1102.45 582.059C1267.17 602.004 1346.05 511.913 1511.34 441.419C1552.91 423.538 1595.91 408.852 1639.97 397.493C1869.17 338.804 2173.72 346.034 2263.42 518.565" stroke="#1AB78D" stroke-width="0.3" stroke-miterlimit="10"/>
<path d="M242.748 1204.98C433.918 646.43 600.176 476.132 733.33 456.676C828.352 442.686 887.889 502.389 973.639 543.449C1019.94 566.182 1069.6 581.253 1120.56 588.032C1283.28 609.153 1364.1 529.332 1530.45 460.82C1572.12 443.445 1614.97 428.745 1658.72 416.81C1888.16 354.674 2185.22 344.377 2277.91 508.313" stroke="#1AB78D" stroke-width="0.3" stroke-miterlimit="10"/>
<path d="M263.393 1225.22C452.207 675.316 618.25 504.757 751.235 476.002C845.262 456.156 906.642 513.485 991.734 551.072C1038.49 572.323 1088 586.802 1138.68 594.042C1299.41 616.339 1382.27 546.731 1549.73 480.194C1591.51 463.369 1634.2 448.677 1677.64 436.175C1907.35 370.739 2196.87 342.658 2292.56 498.072" stroke="#1AB78D" stroke-width="0.3" stroke-miterlimit="10"/>
<path d="M283.851 1245.5C470.376 704.187 635.531 529.477 769.267 495.725C862.667 472.021 925.396 524.238 1009.81 558.624C1056.98 578.371 1106.37 592.244 1156.77 599.907C1315.48 623.424 1400.4 564.101 1568.97 499.422C1608.2 484.419 1650.26 469.192 1696.52 455.358C1926.52 386.504 2208.55 341.051 2307.19 487.761" stroke="#1AB78D" stroke-width="0.3" stroke-miterlimit="10"/>
<path d="M304.312 1265.79C488.741 733.067 652.902 554.612 787.197 515.173C880.08 487.934 944.195 535.033 1027.96 566.136C1075.54 584.365 1124.83 597.672 1174.99 605.836C1331.71 630.529 1418.58 581.395 1588.34 518.752C1627.85 504.155 1669.82 489.023 1715.56 474.635C1945.52 402.464 2220.21 339.423 2321.82 477.463" stroke="#1AB78D" stroke-width="0.3" stroke-miterlimit="10"/>
<path d="M324.809 1286.02C507.03 761.925 670.264 579.675 805.212 534.8C897.549 504.07 963.204 545.869 1045.95 573.796C1093.89 590.502 1143.07 603.257 1192.98 611.927C1347.74 637.788 1436.63 598.909 1607.48 538.051C1647.09 523.896 1689.09 508.757 1734.33 493.853C1964.77 418.078 2231.83 337.579 2336.42 467.024" stroke="#1AB78D" stroke-width="0.3" stroke-miterlimit="10"/>
<path d="M345.282 1306.31C525.287 790.796 687.647 604.821 823.094 554.349C914.893 520.165 981.923 556.618 1063.98 581.461C1112.25 596.591 1161.37 608.774 1211.03 617.941C1363.76 644.984 1454.65 616.324 1626.71 557.612C1666.63 543.936 1708.51 528.783 1753.21 513.405C1983.86 434.077 2243.42 336.176 2351.06 456.973" stroke="#1AB78D" stroke-width="0.3" stroke-miterlimit="10"/>
<path d="M365.757 1326.59C543.591 819.7 705.106 629.957 841.165 573.868C932.47 536.261 1000.9 567.289 1082.11 589.075C1128.8 601.583 1176.53 614.085 1229.23 623.935C1379.95 652.116 1472.86 633.745 1646.05 576.966C1686.19 563.747 1727.98 548.572 1772.27 532.702C2003.13 449.82 2255.23 334.513 2365.81 446.721" stroke="#1AB78D" stroke-width="0.3" stroke-miterlimit="10"/>
<path d="M386.243 1346.87C561.93 848.719 722.33 655.223 859.14 593.453C949.945 552.388 1019.86 577.896 1100.22 596.707C1147.64 607.813 1195.35 619.706 1247.36 629.952C1396.11 659.417 1490.96 651.159 1665.33 596.343C1705.69 583.618 1747.44 568.415 1791.1 552.049C2022.13 465.549 2266.81 332.907 2380.38 436.518" stroke="#1AB78D" stroke-width="0.3" stroke-miterlimit="10"/>
<path d="M406.654 1367.16C580.175 877.493 739.972 680.456 877.115 613.049C967.443 568.635 1038.82 588.478 1118.33 604.386C1166.51 614.011 1214.17 625.339 1265.35 636.045C1412.12 666.567 1508.93 668.683 1684.62 615.803C1725.22 603.492 1766.85 588.274 1810.03 571.466C2041.23 481.27 2278.47 331.302 2395.02 426.318" stroke="#1AB78D" stroke-width="0.3" stroke-miterlimit="10"/>
<path d="M427.259 1387.39C598.495 906.375 757.383 705.821 895.132 632.611C985.012 584.808 1057.8 598.956 1136.4 612.013C1185.33 620.121 1233.03 630.942 1283.64 642.023C1428.33 673.731 1527.22 686.045 1703.89 635.165C1746.38 622.45 1788.13 607.598 1828.95 590.667C2060.3 496.974 2290.27 329.77 2409.66 416.1" stroke="#1AB78D" stroke-width="0.3" stroke-miterlimit="10"/>
<path d="M447.763 1407.67C616.826 935.298 775.07 731.028 913.002 652.212C1002.44 601.057 1076.66 609.431 1154.56 619.676C1204.22 626.229 1251.9 636.558 1301.78 648.079C1444.51 680.952 1545.38 703.519 1723.09 654.587C1765.67 642.436 1807.33 627.596 1847.82 610.158C2079.32 512.472 2301.82 328.227 2424.31 405.787" stroke="#1AB78D" stroke-width="0.3" stroke-miterlimit="10"/>
<path d="M468.279 1427.95C635.123 964.198 792.824 756.503 931.141 671.778C1020.08 617.36 1095.73 619.808 1172.64 627.334C1223.04 632.297 1270.7 642.243 1319.89 654.159C1460.59 688.211 1563.49 720.977 1742.45 673.995C1785.11 662.361 1826.68 647.493 1866.81 629.525C2098.35 528.251 2313.49 326.723 2438.99 395.799" stroke="#1AB78D" stroke-width="0.3" stroke-miterlimit="10"/>
<path d="M489.071 1448.22C653.719 993.468 810.459 782.21 949.329 691.736C1037.93 633.973 1114.85 630.489 1190.88 635.383C1242.14 638.653 1289.68 648.235 1338.18 660.576C1476.86 695.711 1581.73 738.779 1761.84 693.781C1804.55 682.646 1846.05 667.756 1885.82 649.289C2117.42 544.275 2325.19 325.675 2453.65 386.133" stroke="#1AB78D" stroke-width="0.3" stroke-miterlimit="10"/>
<path d="M509.841 1468.5C672.068 1022.44 828.347 807.951 967.589 711.807C1055.79 650.79 1133.97 641.308 1209.23 643.67C1261.11 645.408 1308.8 654.496 1356.54 667.24C1493.21 703.602 1600.07 756.805 1781.26 713.686C1824.03 703.051 1865.44 688.136 1904.86 669.174C2136.5 560.389 2337.13 324.887 2468.35 376.661" stroke="#1AB78D" stroke-width="0.3" stroke-miterlimit="10"/>
<path d="M530.625 1488.79C690.809 1051.52 846.285 833.679 985.767 731.629C1073.64 667.312 1153.01 651.772 1227.49 651.531C1280.03 651.388 1327.73 660.354 1374.81 673.553C1509.44 711.074 1618.28 774.439 1800.64 733.372C1843.46 723.255 1884.81 708.312 1923.86 688.839C2155.47 576.186 2348.6 323.717 2482.98 366.93" stroke="#1AB78D" stroke-width="0.3" stroke-miterlimit="10"/>
<path d="M551.445 1509.02C709.399 1080.58 864.271 859.573 1003.86 751.57C1091.38 684.036 1171.9 662.38 1245.61 659.648C1298.82 657.663 1346.58 666.42 1392.92 679.941C1525.58 718.644 1636.41 792.195 1819.87 753.076C1862.75 743.437 1904.04 728.462 1942.75 708.513C2174.09 591.736 2360.17 322.803 2497.57 357.34" stroke="#1AB78D" stroke-width="0.3" stroke-miterlimit="10"/>
<path d="M572.202 1529.31C824.916 848.201 1073.8 681.181 1264.08 667.704C1471.79 652.986 1590.28 822.912 1839.43 772.822C2131.68 714.024 2348.25 317.41 2512.32 347.776" stroke="#1AB78D" stroke-width="0.3" stroke-miterlimit="10"/>
</svg>
