<svg width="847" height="358" viewBox="0 0 847 358" fill="none" xmlns="http://www.w3.org/2000/svg">
<path d="M897.383 178.885C866.923 93.041 731.071 62.3583 637.855 82.5879C530.435 105.911 505.591 191.223 418.851 184.55C339.701 178.485 319.945 104.292 262.547 103.695C209.796 103.15 139.122 164.894 53.2967 416.561" stroke="#1AB78D" stroke-width="0.3" stroke-miterlimit="10"/>
<path d="M61.6134 425.235C146.502 177.144 216.863 113.636 269.919 112.022C309.251 110.878 331.342 144.35 366.884 166.78C384.715 178.421 405.156 185.45 426.373 187.238C495.881 193.144 526.223 142.424 592.535 109.772C609.426 101.396 627.244 95.0343 645.62 90.8188C738.928 69.0929 871.865 92.5864 903.589 174.82" stroke="#1AB78D" stroke-width="0.3" stroke-miterlimit="10"/>
<path d="M69.9401 433.876C153.895 189.376 223.901 124.13 277.158 120.394C316.307 117.65 338.911 149.207 374.218 170.175C392.296 181.215 412.655 187.981 433.743 189.958C502.371 196.378 533.565 149.9 600.296 118.053C617.246 109.922 634.993 103.568 653.253 99.0937C746.726 76.1582 876.67 92.1606 909.658 170.783" stroke="#1AB78D" stroke-width="0.3" stroke-miterlimit="10"/>
<path d="M78.2449 442.49C161.245 201.632 230.944 134.654 284.454 128.737C323.456 124.419 346.506 154.041 381.627 173.553C399.918 183.992 420.183 190.504 441.129 192.674C508.938 199.595 540.843 157.373 608.071 126.33C625.081 118.402 642.775 112.036 660.936 107.31C754.526 83.0002 881.512 91.6791 915.762 166.691" stroke="#1AB78D" stroke-width="0.3" stroke-miterlimit="10"/>
<path d="M86.5647 451.18C168.622 213.867 237.959 145.199 291.768 137.092C330.58 131.224 354.154 158.896 389.063 176.911C407.58 186.752 427.785 193.014 448.62 195.369C515.61 202.791 548.275 164.831 616.029 134.569C633.07 126.896 650.676 120.545 668.692 115.575C762.414 89.8879 886.444 91.2587 921.973 162.657" stroke="#1AB78D" stroke-width="0.3" stroke-miterlimit="10"/>
<path d="M94.8183 459.852C175.984 226.106 244.719 154.256 299.081 145.432C337.875 139.091 361.78 163.645 396.473 180.29C415.203 189.512 435.348 195.523 456.067 198.073C522.238 205.996 555.632 172.304 623.808 142.862C640.886 135.398 658.427 129.042 676.322 123.834C770.162 96.7088 891.247 90.8174 928.042 158.621" stroke="#1AB78D" stroke-width="0.3" stroke-miterlimit="10"/>
<path d="M103.209 468.495C183.365 238.356 252.014 166.397 306.362 153.699C344.786 144.923 369.455 168.479 403.901 183.681C422.825 192.283 442.913 198.049 463.517 200.792C528.869 209.216 563.035 179.767 631.647 151.142C648.767 143.906 666.247 137.555 684.018 132.112C777.99 103.609 896.107 90.3483 934.175 154.587" stroke="#1AB78D" stroke-width="0.3" stroke-miterlimit="10"/>
<path d="M111.523 477.155C190.696 250.601 259.008 176.915 313.692 162.131C351.883 151.75 377.133 173.169 411.323 187.042C430.425 195.016 450.462 200.53 470.953 203.451C535.475 212.394 570.42 187.219 639.474 159.361C655.546 152.898 672.771 146.327 691.698 140.313C785.807 110.384 900.976 89.9251 940.302 150.522" stroke="#1AB78D" stroke-width="0.3" stroke-miterlimit="10"/>
<path d="M119.837 485.814C198.106 262.844 266.036 187.6 320.982 170.443C358.984 158.592 384.828 177.872 418.771 190.381C438.051 197.72 458.052 202.999 478.442 206.13C542.144 215.575 577.827 194.633 647.356 167.616C663.541 161.32 680.726 154.789 699.448 148.547C793.561 117.235 905.842 89.4864 946.427 146.458" stroke="#1AB78D" stroke-width="0.3" stroke-miterlimit="10"/>
<path d="M128.163 494.455C205.484 275.079 273.06 198.255 328.303 178.829C366.104 165.526 392.607 182.589 426.154 193.781C445.587 200.484 465.552 205.534 485.834 208.877C548.733 218.82 585.176 202.14 655.141 175.859C671.363 169.747 688.564 163.212 707.084 156.757C801.412 123.94 910.69 88.9562 952.542 142.332" stroke="#1AB78D" stroke-width="0.3" stroke-miterlimit="10"/>
<path d="M136.477 503.115C212.846 287.318 280.088 208.941 335.569 187.178C373.171 172.438 400.266 187.268 433.551 197.178C453.13 203.223 473.069 208.036 493.249 211.588C555.314 222.034 592.514 209.601 662.962 184.206C679.304 178.292 696.456 171.751 714.761 165.102C809.199 130.801 915.525 88.6035 958.671 138.363" stroke="#1AB78D" stroke-width="0.3" stroke-miterlimit="10"/>
<path d="M144.791 511.775C220.226 299.568 287.147 219.621 342.911 195.512C380.333 179.347 408.029 191.909 440.991 200.551C459.938 205.512 479.312 210.465 500.726 214.286C561.969 225.218 599.932 217.061 670.829 192.465C687.257 186.739 704.376 180.19 722.512 173.337C817.06 137.551 920.449 88.1372 964.846 134.304" stroke="#1AB78D" stroke-width="0.3" stroke-miterlimit="10"/>
<path d="M153.106 520.434C227.616 311.864 294.106 230.352 350.211 203.87C387.45 186.265 415.786 196.52 448.416 203.927C467.672 208.3 487.042 213 508.173 216.99C568.606 228.469 607.301 224.515 678.665 200.729C695.184 195.208 712.283 188.646 730.172 181.59C824.808 144.292 925.282 87.6893 970.945 130.261" stroke="#1AB78D" stroke-width="0.3" stroke-miterlimit="10"/>
<path d="M161.389 529.1C234.968 324.057 301.235 241.065 357.51 212.229C394.575 193.229 423.539 201.115 455.844 207.318C475.417 211.07 494.771 215.535 515.561 219.722C575.181 231.653 614.615 232.013 686.507 209.024C703.124 203.673 720.175 197.106 737.867 189.867C832.6 151.025 930.145 87.2357 977.074 126.212" stroke="#1AB78D" stroke-width="0.3" stroke-miterlimit="10"/>
<path d="M169.747 537.734C242.346 336.292 308.265 251.831 364.823 220.569C401.726 200.157 431.299 205.662 463.251 210.682C483.139 213.798 502.513 218.052 523.066 222.398C581.837 234.837 622.058 239.437 694.341 217.274C711.731 211.744 728.827 205.328 745.56 198.05C840.376 157.745 935.06 86.8031 983.201 122.148" stroke="#1AB78D" stroke-width="0.3" stroke-miterlimit="10"/>
<path d="M178.061 546.394C249.726 348.542 315.407 262.525 372.073 228.921C408.818 207.111 439.009 210.203 470.691 214.054C490.89 216.519 510.254 220.568 530.512 225.102C588.479 238.038 629.445 246.903 702.147 225.544C719.569 220.249 736.631 213.837 753.229 206.349C848.132 164.373 939.877 86.3584 989.333 118.034" stroke="#1AB78D" stroke-width="0.3" stroke-miterlimit="10"/>
<path d="M186.374 555.053C257.088 360.78 322.57 273.326 379.43 237.252C415.992 214.081 446.805 214.694 478.096 217.418C498.605 219.215 517.968 223.106 537.942 227.809C595.076 241.25 636.813 254.357 710.013 233.802C727.462 228.721 744.491 222.298 760.949 214.589C855.894 171.112 944.743 85.9197 995.475 114.046" stroke="#1AB78D" stroke-width="0.3" stroke-miterlimit="10"/>
<path d="M194.704 563.709C264.481 373.091 329.603 284.106 386.73 245.61C423.179 221.033 454.549 219.164 485.507 220.796C506.378 221.884 525.695 225.626 545.389 230.513C601.697 244.424 644.186 261.827 717.853 242.082C735.325 237.206 752.323 230.77 768.642 222.851C863.645 177.789 949.606 85.4657 1001.6 109.997" stroke="#1AB78D" stroke-width="0.3" stroke-miterlimit="10"/>
<path d="M203.018 572.369C271.77 385.281 336.733 294.898 394.054 254.011C430.366 228.064 462.287 223.684 492.95 224.264C514.087 224.71 533.473 228.246 552.854 233.309C608.35 247.751 651.592 269.385 725.702 250.408C743.196 245.738 760.165 239.288 776.344 231.159C871.401 184.497 954.567 85.1033 1007.75 106.009" stroke="#1AB78D" stroke-width="0.3" stroke-miterlimit="10"/>
<path d="M211.332 581.028C279.211 397.519 343.878 305.688 401.341 262.309C437.543 234.97 469.993 228.051 500.356 227.549C521.776 227.206 541.169 230.693 560.288 235.952C614.949 250.899 658.948 276.779 733.532 258.642C751.049 254.185 767.993 247.721 784.027 239.376C879.114 191.072 959.335 84.5739 1013.86 101.899" stroke="#1AB78D" stroke-width="0.3" stroke-miterlimit="10"/>
<path d="M219.659 589.669C286.588 409.754 351.039 316.553 408.592 270.661C444.676 241.964 477.634 232.479 507.705 230.94C529.412 229.823 548.834 233.225 567.649 238.626C621.51 254.086 666.269 284.227 741.301 266.888C758.842 262.629 775.767 256.147 791.666 247.601C886.681 197.548 964.141 84.1473 1019.96 97.8404" stroke="#1AB78D" stroke-width="0.3" stroke-miterlimit="10"/>
<path d="M227.957 598.332C335.033 312.151 437.514 240.966 515.19 234.303C599.983 227.028 647.304 297.446 749.201 275.156C868.731 248.992 959.391 81.9726 1026.12 93.7854" stroke="#1AB78D" stroke-width="0.3" stroke-miterlimit="10"/>
</svg>
