<svg width="3527" height="2173" viewBox="0 0 3527 2173" fill="none" xmlns="http://www.w3.org/2000/svg">
<path d="M2895.29 732.088C2797.01 455.134 2358.72 356.143 2057.98 421.409C1711.41 496.657 1631.26 771.896 1351.42 750.365C1096.06 730.799 1032.32 491.431 847.137 489.507C676.951 487.747 448.939 686.95 172.043 1498.89" stroke="#1AB78D" stroke-width="0.8" stroke-miterlimit="10"/>
<path d="M198.876 1526.88C472.749 726.471 699.752 521.58 870.923 516.373C997.82 512.681 1069.09 620.672 1183.76 693.035C1241.28 730.591 1307.23 753.27 1375.68 759.037C1599.93 778.093 1697.83 614.457 1911.77 509.114C1966.26 482.089 2023.75 461.565 2083.03 447.965C2384.07 377.871 2812.96 453.667 2915.31 718.974" stroke="#1AB78D" stroke-width="0.8" stroke-miterlimit="10"/>
<path d="M225.74 1554.76C496.601 765.936 722.457 555.435 894.278 543.381C1020.58 534.53 1093.51 636.339 1207.42 703.987C1265.74 739.607 1331.43 761.437 1399.46 767.813C1620.88 788.525 1721.52 638.577 1936.8 535.829C1991.49 509.596 2048.75 489.097 2107.66 474.662C2409.23 400.666 2828.46 452.294 2934.89 705.951" stroke="#1AB78D" stroke-width="0.8" stroke-miterlimit="10"/>
<path d="M252.535 1582.55C520.315 805.478 745.182 589.388 917.82 570.297C1043.65 556.366 1118.02 651.935 1231.32 714.888C1290.34 748.565 1355.72 769.574 1423.29 776.577C1642.06 798.905 1745 662.687 1961.89 562.532C2016.77 536.957 2073.86 516.418 2132.45 501.169C2434.39 422.74 2844.08 450.741 2954.58 692.749" stroke="#1AB78D" stroke-width="0.8" stroke-miterlimit="10"/>
<path d="M279.374 1610.58C544.111 844.951 767.813 623.409 941.415 597.253C1066.63 578.322 1142.69 667.599 1255.31 725.719C1315.05 757.47 1380.24 777.672 1447.46 785.27C1663.59 809.215 1768.97 686.746 1987.56 589.115C2042.54 564.357 2099.35 543.869 2157.47 527.833C2459.84 444.96 2859.99 449.383 2974.62 679.733" stroke="#1AB78D" stroke-width="0.8" stroke-miterlimit="10"/>
<path d="M306.001 1638.56C567.863 884.435 789.62 652.629 965.004 624.161C1090.17 603.703 1167.29 682.921 1279.22 736.622C1339.65 766.375 1404.64 785.769 1471.48 793.995C1684.97 819.556 1792.71 710.856 2012.66 615.869C2067.76 591.789 2124.35 571.284 2182.08 554.481C2484.83 466.968 2875.49 447.96 2994.2 666.711" stroke="#1AB78D" stroke-width="0.8" stroke-miterlimit="10"/>
<path d="M333.073 1666.45C591.676 923.958 813.156 691.798 988.497 650.832C1112.46 622.52 1192.05 698.516 1303.19 747.562C1364.24 775.315 1429.05 793.917 1495.52 802.768C1706.36 829.946 1816.59 734.935 2037.95 642.582C2093.19 619.239 2149.58 598.747 2206.91 581.186C2510.09 489.229 2891.17 446.447 3013.99 653.696" stroke="#1AB78D" stroke-width="0.8" stroke-miterlimit="10"/>
<path d="M359.899 1694.39C615.331 963.462 835.724 725.732 1012.15 678.034C1135.36 644.545 1216.82 713.649 1327.13 758.404C1388.76 784.13 1453.4 801.92 1519.51 811.345C1727.68 840.198 1840.42 758.975 2063.21 669.098C2115.06 648.247 2170.63 627.047 2231.69 607.645C2535.31 511.086 2906.88 445.081 3033.75 640.583" stroke="#1AB78D" stroke-width="0.8" stroke-miterlimit="10"/>
<path d="M386.717 1722.32C639.236 1002.96 858.396 760.207 1035.66 704.853C1158.27 666.619 1241.65 728.821 1351.16 769.177C1413.36 792.855 1477.89 809.888 1543.67 819.99C1749.19 850.46 1864.31 782.897 2088.63 695.731C2140.85 675.421 2196.29 654.349 2256.7 634.211C2560.33 533.191 2922.57 443.666 3053.51 627.471" stroke="#1AB78D" stroke-width="0.8" stroke-miterlimit="10"/>
<path d="M413.582 1750.2C663.039 1042.44 881.055 794.583 1059.29 731.907C1181.24 688.988 1266.75 744.04 1374.98 780.147C1437.67 801.772 1502.08 818.065 1567.52 828.852C1770.45 860.928 1888.02 807.114 2113.75 722.326C2166.09 702.606 2221.58 681.524 2281.33 660.7C2585.66 554.821 2938.22 441.955 3073.24 614.161" stroke="#1AB78D" stroke-width="0.8" stroke-miterlimit="10"/>
<path d="M440.405 1778.14C686.79 1081.92 903.731 829.059 1082.73 758.845C1204.04 711.29 1291.46 759.135 1398.84 791.108C1462.01 810.61 1526.34 826.136 1591.44 837.597C1791.68 871.3 1911.7 831.186 2138.98 749.257C2191.71 730.176 2247.04 709.074 2306.1 687.623C2610.78 576.956 2953.82 440.817 3093.02 601.354" stroke="#1AB78D" stroke-width="0.8" stroke-miterlimit="10"/>
<path d="M467.227 1806.08C710.599 1121.44 926.505 863.513 1106.41 785.732C1227.15 733.58 1316.5 774.108 1422.85 801.989C1483.97 817.994 1546.48 833.974 1615.57 846.301C1813.15 881.571 1935.63 855.255 2164.36 775.9C2217.36 757.429 2272.59 736.298 2331.1 714.189C2636.14 598.734 2969.7 439.313 3112.94 588.26" stroke="#1AB78D" stroke-width="0.8" stroke-miterlimit="10"/>
<path d="M494.055 1834.01C734.444 1161.11 948.959 898.136 1129.97 812.698C1250.11 755.899 1341.53 788.983 1446.8 812.88C1508.93 826.989 1571.42 842.151 1639.59 855.024C1834.57 892.058 1959.41 879.304 2189.65 802.563C2242.94 784.75 2298.11 763.581 2355.82 740.815C2661.14 620.484 2985.3 437.868 3132.62 575.216" stroke="#1AB78D" stroke-width="0.8" stroke-miterlimit="10"/>
<path d="M520.777 1861.97C758.163 1200.45 971.958 932.699 1153.52 839.665C1273.1 778.368 1366.54 803.811 1470.76 823.821C1533.91 835.927 1596.35 850.331 1663.43 863.839C1855.78 902.332 1983 903.494 2214.95 829.326C2268.56 812.063 2323.57 790.875 2380.65 767.521C2686.28 642.205 3000.98 436.405 3152.39 562.153" stroke="#1AB78D" stroke-width="0.8" stroke-miterlimit="10"/>
<path d="M547.74 1889.83C781.966 1239.92 994.638 967.43 1177.11 866.572C1296.17 800.717 1391.58 818.479 1494.66 834.673C1558.83 844.726 1621.33 858.45 1687.64 872.474C1877.25 912.603 2007.01 927.444 2240.22 855.941C2296.32 838.101 2351.48 817.401 2405.47 793.92C2711.37 663.885 3016.84 435.009 3172.16 549.04" stroke="#1AB78D" stroke-width="0.8" stroke-miterlimit="10"/>
<path d="M574.562 1917.77C805.775 1279.45 1017.68 1001.93 1200.5 893.519C1319.05 823.155 1416.45 833.128 1518.66 845.554C1583.83 853.505 1646.31 866.569 1711.66 881.197C1898.68 922.933 2030.84 951.533 2265.4 882.624C2321.61 865.539 2376.66 844.853 2430.2 820.694C2736.39 685.271 3032.38 433.574 3191.94 535.769" stroke="#1AB78D" stroke-width="0.8" stroke-miterlimit="10"/>
<path d="M601.385 1945.71C829.525 1318.93 1040.79 1036.78 1224.23 920.396C1342.19 845.642 1441.6 847.619 1542.56 856.406C1608.72 862.206 1671.19 874.758 1735.63 889.932C1919.96 933.294 2054.62 975.583 2290.78 909.267C2347.07 892.874 2402.01 872.15 2455.11 847.28C2761.43 707.011 3048.08 432.159 3211.75 522.902" stroke="#1AB78D" stroke-width="0.8" stroke-miterlimit="10"/>
<path d="M628.262 1973.63C853.381 1358.65 1063.48 1071.56 1247.79 947.362C1365.38 868.068 1466.59 862.041 1566.47 867.306C1633.8 870.816 1696.12 882.887 1759.66 898.655C1941.33 943.535 2078.41 999.682 2316.08 935.979C2372.45 920.249 2427.28 899.484 2479.94 873.935C2786.44 728.553 3063.77 430.694 3231.53 509.838" stroke="#1AB78D" stroke-width="0.8" stroke-miterlimit="10"/>
<path d="M655.083 2001.57C876.893 1397.98 1086.48 1106.38 1271.42 974.466C1388.57 890.753 1491.55 876.622 1590.48 878.493C1658.67 879.931 1721.22 891.341 1783.74 907.675C1962.79 954.27 2102.3 1024.07 2341.4 962.84C2397.84 947.773 2452.58 926.964 2504.78 900.739C2811.46 750.196 3079.78 429.525 3251.35 496.972" stroke="#1AB78D" stroke-width="0.8" stroke-miterlimit="10"/>
<path d="M681.906 2029.51C900.9 1437.46 1109.53 1141.19 1294.93 1001.24C1411.72 913.033 1516.41 890.711 1614.37 889.09C1683.48 887.983 1746.04 899.235 1807.73 916.203C1984.08 964.424 2126.03 1047.92 2366.66 989.406C2423.17 975.027 2477.84 954.17 2529.57 927.248C2836.34 771.405 3095.16 427.816 3271.08 483.712" stroke="#1AB78D" stroke-width="0.8" stroke-miterlimit="10"/>
<path d="M708.769 2057.39C924.701 1476.93 1132.63 1176.24 1318.32 1028.18C1434.73 935.599 1541.06 904.997 1638.08 900.031C1708.11 896.429 1770.77 907.404 1831.48 924.829C2005.25 974.706 2149.65 1071.95 2391.72 1016.01C2448.31 1002.27 2502.92 981.358 2554.21 953.786C2860.75 792.301 3110.66 426.441 3290.75 470.619" stroke="#1AB78D" stroke-width="0.8" stroke-miterlimit="10"/>
<path d="M735.542 2085.33C1081 1162.04 1411.63 932.377 1662.23 910.883C1935.8 887.411 2088.47 1114.6 2417.21 1042.68C2802.85 958.272 3095.34 419.425 3310.62 457.536" stroke="#1AB78D" stroke-width="0.8" stroke-miterlimit="10"/>
</svg>
