<svg width="20" height="20" viewBox="0 0 20 20" fill="none" xmlns="http://www.w3.org/2000/svg">
<path d="M9.16663 2.5L8.61449 2.69487C6.46552 3.45333 5.39103 3.83256 4.77883 4.69785C4.16663 5.56313 4.16663 6.70258 4.16663 8.98147V11.0185C4.16663 13.2974 4.16663 14.4369 4.77883 15.3022C5.39103 16.1674 6.46552 16.5467 8.61449 17.3051L9.16663 17.5" stroke="#222222" stroke-width="1.5" stroke-linecap="round"/>
<path d="M9.16663 2.5L8.61449 2.69487C6.46552 3.45333 5.39103 3.83256 4.77883 4.69785C4.16663 5.56313 4.16663 6.70258 4.16663 8.98147V11.0185C4.16663 13.2974 4.16663 14.4369 4.77883 15.3022C5.39103 16.1674 6.46552 16.5467 8.61449 17.3051L9.16663 17.5" stroke="black" stroke-opacity="0.2" stroke-width="1.5" stroke-linecap="round"/>
<path d="M9.16663 2.5L8.61449 2.69487C6.46552 3.45333 5.39103 3.83256 4.77883 4.69785C4.16663 5.56313 4.16663 6.70258 4.16663 8.98147V11.0185C4.16663 13.2974 4.16663 14.4369 4.77883 15.3022C5.39103 16.1674 6.46552 16.5467 8.61449 17.3051L9.16663 17.5" stroke="black" stroke-opacity="0.2" stroke-width="1.5" stroke-linecap="round"/>
<path d="M17.5 9.99984L9.16663 9.99984M17.5 9.99984C17.5 9.41631 15.838 8.32611 15.4166 7.9165M17.5 9.99984C17.5 10.5834 15.838 11.6736 15.4166 12.0832" stroke="#222222" stroke-width="1.5" stroke-linecap="round" stroke-linejoin="round"/>
<path d="M17.5 9.99984L9.16663 9.99984M17.5 9.99984C17.5 9.41631 15.838 8.32611 15.4166 7.9165M17.5 9.99984C17.5 10.5834 15.838 11.6736 15.4166 12.0832" stroke="black" stroke-opacity="0.2" stroke-width="1.5" stroke-linecap="round" stroke-linejoin="round"/>
<path d="M17.5 9.99984L9.16663 9.99984M17.5 9.99984C17.5 9.41631 15.838 8.32611 15.4166 7.9165M17.5 9.99984C17.5 10.5834 15.838 11.6736 15.4166 12.0832" stroke="black" stroke-opacity="0.2" stroke-width="1.5" stroke-linecap="round" stroke-linejoin="round"/>
</svg>
