<svg width="410" height="222" viewBox="0 0 410 222" fill="none" xmlns="http://www.w3.org/2000/svg">
<mask id="mask0_28_1014" style="mask-type:alpha" maskUnits="userSpaceOnUse" x="0" y="0" width="410" height="222">
<rect width="410" height="222" rx="30" fill="#00549A"/>
</mask>
<g mask="url(#mask0_28_1014)">
<path d="M596.857 -6.85907C560.623 -43.2763 483.964 -26.1522 441.321 6.64432C392.183 44.4437 400.093 93.929 354.263 111.448C312.449 127.446 284.482 94.3865 255.076 107.927C228.052 120.372 206.914 168.895 223.859 317.898" stroke="#1AB78D" stroke-width="0.3" stroke-miterlimit="10"/>
<path d="M230.192 320.314C213.631 173.361 234.184 124.013 260.843 110.394C280.619 100.324 299.955 112.06 323.484 114.922C335.382 116.556 347.499 115.21 358.746 111.004C395.607 97.2501 398.842 64.0741 424.773 31.4341C431.364 23.0895 438.913 15.5489 447.265 8.96755C489.594 -24.6137 563.033 -44.6999 599.04 -10.4281" stroke="#1AB78D" stroke-width="0.3" stroke-miterlimit="10"/>
<path d="M236.521 322.711C220.35 177.813 240.303 127.666 266.553 112.915C285.849 102.075 304.984 112.71 328.042 114.884C339.921 116.152 351.932 114.691 363.16 110.613C399.695 97.333 404.389 66.1147 430.727 33.7836C437.407 25.5499 444.922 18.0304 453.152 11.3452C495.274 -22.8927 565.38 -46.0762 601.161 -13.9498" stroke="#1AB78D" stroke-width="0.3" stroke-miterlimit="10"/>
<path d="M242.832 325.1C227.053 182.289 246.432 131.332 272.285 115.409C291.127 103.801 310.023 113.343 332.634 114.82C344.477 115.73 356.378 114.162 367.58 110.216C403.819 97.3895 409.901 68.1693 436.687 36.1279C443.447 27.9839 450.932 20.4706 459.051 13.6807C500.901 -21.2858 567.732 -47.4893 603.286 -17.5083" stroke="#1AB78D" stroke-width="0.3" stroke-miterlimit="10"/>
<path d="M249.17 327.523C233.765 186.747 252.552 135.016 278.029 117.904C296.4 105.552 315.092 113.974 337.235 114.738C349.048 115.289 360.859 113.608 372.049 109.783C407.992 97.4093 415.489 70.1783 442.731 38.4092C449.568 30.3867 457.013 22.9027 464.999 16.0234C506.583 -19.677 570.146 -48.8935 605.48 -21.0632" stroke="#1AB78D" stroke-width="0.3" stroke-miterlimit="10"/>
<path d="M255.469 329.954C240.47 191.211 258.182 138.003 283.768 120.393C302.017 107.803 320.126 114.555 341.827 114.673C353.6 114.857 365.32 113.063 376.498 109.366C412.144 97.4449 421.042 72.2137 448.697 40.7606C455.604 32.8364 463.013 25.3655 470.88 18.3941C512.178 -18.0683 572.488 -50.2767 607.6 -24.5848" stroke="#1AB78D" stroke-width="0.3" stroke-miterlimit="10"/>
<path d="M261.832 332.336C247.188 195.676 264.83 142.433 289.474 122.851C306.946 109.11 325.205 115.168 346.432 114.61C358.155 114.432 369.786 112.526 380.952 108.955C416.301 97.4873 426.616 74.2331 454.691 43.0907C461.674 35.273 469.053 27.8188 476.8 20.7576C517.833 -16.4386 574.852 -51.6881 609.754 -28.1206" stroke="#1AB78D" stroke-width="0.3" stroke-miterlimit="10"/>
<path d="M268.159 334.746C253.879 200.15 270.932 146.108 295.245 125.381C312.211 110.878 330.25 115.708 351.026 114.533C362.688 113.991 374.233 111.97 385.384 108.517C420.435 97.514 432.178 76.2508 460.664 45.3929C467.298 38.2218 474.495 30.7172 482.694 23.0862C523.453 -14.8703 577.232 -53.0784 611.896 -31.6703" stroke="#1AB78D" stroke-width="0.3" stroke-miterlimit="10"/>
<path d="M274.486 337.155C260.61 204.605 277.093 149.861 300.966 127.861C317.481 112.654 335.307 116.249 355.629 114.439C367.228 113.531 378.698 111.398 389.848 108.077C424.602 97.5269 437.743 78.2443 466.673 47.7007C473.406 40.5875 480.592 33.1127 488.631 25.415C529.058 -13.2473 579.607 -54.4754 614.039 -35.2197" stroke="#1AB78D" stroke-width="0.3" stroke-miterlimit="10"/>
<path d="M280.815 339.552C267.322 209.063 283.243 153.599 306.721 130.37C322.784 114.471 340.411 116.778 360.213 114.392C371.737 113.122 383.133 110.881 394.279 107.694C428.744 97.592 443.3 80.2986 472.63 50.0255C479.426 42.9965 486.619 35.5164 494.504 27.759C534.678 -11.7232 581.951 -55.915 616.161 -38.7978" stroke="#1AB78D" stroke-width="0.3" stroke-miterlimit="10"/>
<path d="M287.142 341.962C274.027 213.527 289.404 157.351 312.439 132.875C328.054 116.291 345.444 117.316 364.804 114.34C376.243 112.699 387.569 110.344 398.714 107.287C432.875 97.6435 448.84 82.3324 478.63 52.3946C485.536 45.4377 492.702 37.9664 500.431 30.1616C540.303 -10.1037 584.331 -57.2611 618.329 -42.2998" stroke="#1AB78D" stroke-width="0.3" stroke-miterlimit="10"/>
<path d="M293.469 344.371C280.744 217.992 295.578 161.093 318.192 135.352C333.372 118.085 350.521 117.81 369.41 114.265C380.266 112.224 391.337 110.076 403.176 106.86C437.035 97.6615 454.421 84.3467 484.633 54.7074C491.628 47.8259 498.775 40.3581 506.368 32.4901C545.938 -8.55818 586.729 -58.6865 620.498 -45.8583" stroke="#1AB78D" stroke-width="0.3" stroke-miterlimit="10"/>
<path d="M299.797 346.78C287.477 222.478 301.715 164.886 323.93 137.853C338.668 119.896 355.588 118.289 374.009 114.195C384.881 111.78 395.889 109.504 407.625 106.442C441.203 97.718 459.976 86.3696 490.621 57.0306C497.711 50.2316 504.846 42.7621 512.264 34.8502C551.514 -6.98995 589.085 -60.0803 622.632 -49.3905" stroke="#1AB78D" stroke-width="0.3" stroke-miterlimit="10"/>
<path d="M306.11 349.2C294.166 226.921 307.933 168.628 329.667 140.354C343.981 121.728 360.649 118.762 378.614 114.133C389.498 111.325 400.441 108.933 412.05 106.053C445.323 97.7555 465.513 88.428 496.62 59.3681C503.801 52.6324 510.91 45.1717 518.183 37.2141C557.111 -5.43719 591.454 -61.4844 624.78 -52.933" stroke="#1AB78D" stroke-width="0.3" stroke-miterlimit="10"/>
<path d="M312.453 351.587C300.878 231.379 314.113 172.42 335.407 142.842C349.297 123.535 365.702 119.208 383.201 114.061C394.092 110.853 404.995 108.348 416.522 105.607C449.484 97.7732 471.098 90.4174 502.604 61.6841C510.136 54.6709 517.303 47.2765 524.079 39.5301C562.696 -3.88667 593.856 -62.8907 626.924 -56.4829" stroke="#1AB78D" stroke-width="0.3" stroke-miterlimit="10"/>
<path d="M318.78 353.996C307.596 235.844 320.334 176.15 341.118 145.351C354.59 125.369 370.728 119.663 387.808 113.986C398.7 110.37 409.549 107.764 420.97 105.19C453.642 97.8032 476.665 92.442 508.578 64.0178C516.182 57.1162 523.335 49.732 529.99 41.9111C568.248 -2.37824 596.204 -64.2794 629.058 -60.0591" stroke="#1AB78D" stroke-width="0.3" stroke-miterlimit="10"/>
<path d="M325.107 356.405C314.3 240.307 326.591 179.929 346.878 147.824C359.929 127.193 375.785 120.073 392.395 113.914C403.284 109.884 414.094 107.198 425.411 104.778C457.78 97.8495 482.22 94.4652 514.58 66.3307C522.25 59.5319 529.382 52.1498 535.913 44.2504C573.831 -0.814977 598.579 -65.6764 631.227 -63.5735" stroke="#1AB78D" stroke-width="0.3" stroke-miterlimit="10"/>
<path d="M331.442 358.809C321.039 244.801 332.776 183.728 352.615 150.324C365.269 129.003 380.811 120.484 396.988 113.85C407.89 109.37 418.641 106.618 429.86 104.36C461.922 97.8708 487.78 96.4951 520.574 68.6608C528.305 61.9611 535.419 54.5801 541.828 46.6068C579.393 0.719765 600.949 -67.0809 633.375 -67.1164" stroke="#1AB78D" stroke-width="0.3" stroke-miterlimit="10"/>
<path d="M337.769 361.219C327.695 249.257 339.014 187.511 358.375 152.84C370.629 130.854 385.846 120.922 401.618 113.822C412.502 108.951 423.238 106.078 434.34 103.985C466.115 97.9626 493.378 98.5621 526.583 71.0124C534.375 64.4121 541.471 57.0311 547.759 48.9847C584.965 2.26896 603.391 -68.4622 635.544 -70.6308" stroke="#1AB78D" stroke-width="0.3" stroke-miterlimit="10"/>
<path d="M344.096 363.628C334.44 253.702 345.259 191.288 364.092 155.313C375.954 132.644 390.828 121.29 406.186 113.71C417.024 108.369 427.751 105.47 438.767 103.54C470.239 97.9754 498.912 100.557 532.561 73.3218C540.417 66.8246 547.496 59.4419 553.657 51.3204C590.483 3.76018 605.694 -69.8821 637.671 -74.2014" stroke="#1AB78D" stroke-width="0.3" stroke-miterlimit="10"/>
<path d="M350.425 366.025C341.152 258.16 351.53 195.1 369.803 157.822C381.277 134.489 395.791 121.704 410.751 113.667C421.548 107.862 432.27 104.912 443.165 103.127C474.352 98.0177 504.441 102.589 538.511 75.6518C546.426 69.2496 553.491 61.8631 559.535 53.6715C595.902 5.23691 608.041 -71.2586 639.801 -77.7409" stroke="#1AB78D" stroke-width="0.3" stroke-miterlimit="10"/>
<path d="M356.745 368.44C342.308 196.716 377.385 135.708 415.378 113.576C456.852 89.4155 497.961 113.902 544.533 77.9614C599.16 35.7928 605.095 -71.2216 641.963 -81.2937" stroke="#1AB78D" stroke-width="0.3" stroke-miterlimit="10"/>
</g>
</svg>
