<svg width="228" height="228" viewBox="0 0 228 228" fill="none" xmlns="http://www.w3.org/2000/svg">
<path fill-rule="evenodd" clip-rule="evenodd" d="M45.2761 22.3303C48.1741 20.1574 51.1723 18.1237 54.2594 16.2358L16.2388 54.2594C18.1267 51.1723 20.1574 48.1734 22.3281 45.2792L45.2761 22.3303ZM95.5905 0.917252C96.716 0.732632 97.8468 0.566937 98.9778 0.417947L0.421747 98.9748C0.57 97.8439 0.736432 96.7153 0.920314 95.5874L95.5905 0.917252ZM125.409 0C126.275 0.0858192 127.143 0.180819 128.009 0.287227L0.291126 128.006C0.183783 127.14 0.088882 126.272 0 125.405L125.409 0ZM149.301 5.00225C150.025 5.23632 150.747 5.47957 151.469 5.72959L5.72959 151.465C5.48338 150.747 5.23938 150.022 5.00541 149.298L149.301 5.00225ZM169.459 13.7446C170.08 14.0865 170.695 14.4368 171.306 14.7896L14.7934 171.302C14.4399 170.691 14.0897 170.077 13.7484 169.456L169.459 13.7446ZM186.675 25.4272C187.203 25.8636 187.729 26.2998 188.248 26.7451L26.7481 188.248C26.3027 187.725 25.8665 187.2 25.4303 186.672L186.675 25.4272ZM201.254 39.7479C201.697 40.2708 202.136 40.796 202.57 41.325L41.328 202.57C40.7968 202.133 40.2708 201.696 39.7518 201.251L201.254 39.7479ZM213.21 56.6937C213.563 57.3055 213.91 57.9225 214.252 58.5404L58.5435 214.252C57.9234 213.91 57.3085 213.562 56.6967 213.21L213.21 56.6937ZM222.27 76.5312C222.52 77.2494 222.76 77.9706 222.995 78.6949L78.6987 222.995C77.9745 222.76 77.2524 222.517 76.5342 222.267L222.27 76.5312ZM227.712 99.9901C227.819 100.857 227.914 101.724 228 102.591L102.594 228C101.727 227.91 100.86 227.815 99.9932 227.709L227.712 99.9901ZM227.581 129.018C227.433 130.152 227.263 131.284 227.083 132.409L132.412 227.08C131.287 227.264 130.156 227.43 129.022 227.578L227.581 129.018ZM211.761 173.74C209.876 176.825 207.848 179.82 205.678 182.712L182.718 205.672C179.823 207.842 176.828 209.872 173.74 211.76L211.761 173.74Z" fill="#B8D4E9"/>
</svg>
