<svg width="152" height="278" viewBox="0 0 152 278" fill="none" xmlns="http://www.w3.org/2000/svg">
<path d="M115.56 183.972C116.88 181.59 118.462 180.158 121.06 181.061C122.545 181.578 122.973 182.909 122.836 184.408C122.694 185.975 121.828 186.98 120.28 187.116C119.298 187.203 118.042 187.271 117.349 186.754C116.493 186.115 116.094 184.859 115.56 183.972Z" fill="#B8D4E9"/>
<path d="M115.498 244.601C118.302 241.252 120.232 240.59 121.938 242.201C123.157 243.353 123.185 245.691 121.993 246.881C120.34 248.533 118.39 247.904 115.498 244.601Z" fill="#B8D4E9"/>
<path d="M144.629 33.5464C147.404 30.2056 149.353 29.5332 151.062 31.1382C152.289 32.2909 152.317 34.6216 151.117 35.8158C149.45 37.4747 147.489 36.8445 144.629 33.5464Z" fill="#B8D4E9"/>
<path d="M61.305 127.361C59.633 127.286 58.2626 125.729 58.2616 123.902C58.2604 121.969 60.062 120.196 61.8014 120.417C63.5473 120.64 64.6706 122.143 64.5828 124.14C64.5047 125.903 62.9482 127.434 61.305 127.361Z" fill="#B8D4E9"/>
<path d="M148.7 90.8759C150.612 90.9887 151.921 92.0532 151.947 93.5183C151.976 95.1359 149.822 97.2873 148.24 97.2197C146.608 97.151 144.598 94.8952 144.759 93.3152C144.923 91.6944 146.457 90.7448 148.7 90.8759Z" fill="#B8D4E9"/>
<path d="M148.819 120.21C150.631 121.34 152.3 122.332 151.833 124.627C151.544 126.042 149.197 127.416 147.831 126.99C146.374 126.536 144.778 125.902 144.772 124.036C144.763 121.32 147.245 121.249 148.819 120.21Z" fill="#B8D4E9"/>
<path d="M148.304 156.923C146.109 156.905 144.618 155.716 144.734 154.075C144.836 152.651 146.708 150.715 148.118 150.578C149.677 150.426 151.89 152.488 151.948 154.146C152.005 155.763 150.462 156.939 148.304 156.923Z" fill="#B8D4E9"/>
<path d="M148.218 187.209C145.991 187.162 144.559 185.953 144.746 184.277C144.909 182.812 146.802 180.933 148.202 180.848C149.773 180.752 151.951 182.881 151.955 184.515C151.958 186.122 150.388 187.254 148.218 187.209Z" fill="#B8D4E9"/>
<path d="M144.656 214.453C147.307 210.994 149.149 210.274 150.962 211.814C152.232 212.891 152.359 215.224 151.216 216.492C149.645 218.236 147.607 217.661 144.656 214.453Z" fill="#B8D4E9"/>
<path d="M115.528 33.6797C118.204 30.212 120.025 29.4965 121.831 31.0297C123.094 32.1011 123.229 34.4439 122.101 35.711C120.544 37.4579 118.519 36.891 115.528 33.6797Z" fill="#B8D4E9"/>
<path d="M151.918 274.08C152.09 275.661 150.096 277.913 148.452 277.994C147.12 278.062 145.089 276.309 144.773 274.821C144.424 273.17 145.81 271.795 147.969 271.651C150.203 271.5 151.74 272.446 151.918 274.08Z" fill="#B8D4E9"/>
<path d="M115.527 3.36782C118.23 -0.0564099 120.083 -0.766081 121.857 0.770623C123.108 1.85478 123.216 4.19393 122.073 5.44906C120.487 7.18926 118.484 6.61116 115.527 3.36782Z" fill="#B8D4E9"/>
<path d="M115.666 64.1411C116.147 61.7232 117.227 60.2624 119.872 60.5846C121.678 60.8048 122.654 61.6781 122.852 63.5364C123.042 65.3269 121.865 65.9638 120.577 66.5525C117.909 67.7694 116.917 65.6986 115.666 64.1411Z" fill="#B8D4E9"/>
<path d="M115.518 214.137C118.486 210.899 120.482 210.32 122.07 212.049C123.218 213.3 123.114 215.636 121.86 216.727C120.074 218.279 118.232 217.578 115.518 214.137Z" fill="#B8D4E9"/>
<path d="M144.589 3.08192C146.008 1.43408 146.914 -0.83905 149.526 0.436996C150.885 1.10163 152.307 2.28216 151.812 4.02505C151.55 4.94708 150.382 5.71792 149.462 6.30009C148.969 6.61169 148.124 6.45317 147.457 6.36407C146.981 6.30055 146.367 6.1255 146.113 5.77942C145.524 4.98052 145.118 4.04753 144.589 3.08192Z" fill="#B8D4E9"/>
<path d="M144.819 64.169C145.224 61.9069 146.12 60.3183 148.802 60.574C150.312 60.7179 151.444 61.2517 151.866 62.7715C152.231 64.082 150.868 66.2377 149.258 66.7436C146.917 67.4794 145.933 65.6814 144.819 64.169Z" fill="#B8D4E9"/>
<path d="M144.713 245.022C145.433 242.087 146.816 240.952 149.295 241.388C150.812 241.656 152.169 242.557 151.83 244.008C151.524 245.314 150.408 246.856 149.23 247.438C146.986 248.545 146.038 246.312 144.713 245.022Z" fill="#B8D4E9"/>
<path d="M115.638 153.349C116.916 151.774 118.002 149.727 120.199 150.903C121.352 151.521 122.419 153.078 122.681 154.382C122.979 155.861 121.568 156.673 120.06 156.912C117.538 157.312 116.253 156.062 115.638 153.349Z" fill="#B8D4E9"/>
<path d="M2.91786 120.299C5.15795 120.986 7.10594 121.973 6.71874 124.101C6.47273 125.456 4.77496 126.545 3.77362 127.7C-1.08204 124.387 -1.11313 123.973 2.91786 120.299Z" fill="#B8D4E9"/>
<path d="M115.587 94.5442C116.314 91.585 117.715 90.4776 120.178 90.8975C121.701 91.1575 123.042 92.0705 122.698 93.5206C122.388 94.8224 121.272 96.3519 120.095 96.9341C117.848 98.0468 116.914 95.7913 115.587 94.5442Z" fill="#B8D4E9"/>
<path d="M31.9729 127.393C30.0302 126.283 28.4202 124.791 29.367 122.478C29.7606 121.516 31.4637 120.516 32.5345 120.557C33.9018 120.608 35.3823 121.377 35.5129 123.416C35.6872 126.122 34.1788 127.007 31.9729 127.393Z" fill="#B8D4E9"/>
<path d="M90.4287 66.9605C88.4699 66.8982 87.3338 65.662 87.3958 63.6598C87.4568 61.6619 88.6582 60.5394 90.6662 60.6039C92.6527 60.6684 93.7439 61.8606 93.6926 63.9057C93.6423 65.9251 92.4677 67.025 90.4287 66.9605Z" fill="#B8D4E9"/>
<path d="M6.86093 274.106C6.98819 275.619 5.42318 277.736 4.01746 277.954C2.46738 278.193 0.226215 276.291 0.0454134 274.583C-0.111874 273.094 1.11515 271.869 2.9755 271.655C5.03807 271.416 6.72402 272.482 6.86093 274.106Z" fill="#B8D4E9"/>
<path d="M6.35698 3.28328C6.33987 5.26014 5.11716 6.44369 3.13484 6.40494C1.15468 6.36659 -0.0103609 5.15879 0.0164031 3.17065C0.0421295 1.17286 1.22852 0.0221042 3.23749 0.0451764C5.20805 0.0682487 6.37408 1.2788 6.35698 3.28328Z" fill="#B8D4E9"/>
<path d="M6.35802 33.569C6.32484 35.5394 5.09143 36.7232 3.11662 36.6833C1.14076 36.6439 -0.0178238 35.4299 0.0120835 33.4326C0.0442033 31.4375 1.23276 30.2958 3.25354 30.3204C5.22842 30.3446 6.39223 31.5623 6.35802 33.569Z" fill="#B8D4E9"/>
<path d="M35.4679 244.623C35.4336 246.6 34.2172 247.772 32.2307 247.739C30.2538 247.706 29.108 246.503 29.1347 244.49C29.1615 242.488 30.3436 241.347 32.3666 241.372C34.335 241.397 35.501 242.618 35.4679 244.623Z" fill="#B8D4E9"/>
<path d="M93.6926 3.15371C93.7225 5.17352 92.5939 6.3671 90.6148 6.40964C88.6111 6.45265 87.4332 5.31034 87.4012 3.29532C87.3702 1.27977 88.5105 0.0751093 90.48 0.041092C92.5019 0.00647312 93.6626 1.13186 93.6926 3.15371Z" fill="#B8D4E9"/>
<path d="M119.203 278C117.82 278.014 116.005 276.052 115.925 274.456C115.858 273.108 117.371 271.72 118.984 271.65C121.201 271.553 122.719 272.57 122.806 274.209C122.892 275.844 120.86 277.983 119.203 278Z" fill="#B8D4E9"/>
<path d="M90.6502 36.688C88.6379 36.739 87.4451 35.6082 87.4002 33.6052C87.3552 31.5854 88.4871 30.3655 90.4469 30.3225C92.472 30.2779 93.6423 31.3892 93.6926 33.4048C93.744 35.424 92.6185 36.6377 90.6502 36.688Z" fill="#B8D4E9"/>
<path d="M6.35822 214.53C6.22776 216.455 4.89591 217.594 2.93395 217.46C1.00934 217.328 -0.12031 216.001 0.010214 214.028C0.137533 212.118 1.47899 210.97 3.4388 211.092C5.33336 211.21 6.49091 212.573 6.35822 214.53Z" fill="#B8D4E9"/>
<path d="M6.35912 244.604C6.32282 246.575 5.09792 247.764 3.12851 247.738C1.14618 247.714 -0.0134385 246.511 0.0100601 244.504C0.0325364 242.519 1.22963 241.36 3.24187 241.372C5.21988 241.385 6.39452 242.603 6.35912 244.604Z" fill="#B8D4E9"/>
<path d="M35.4679 214.516C35.3502 216.441 34.0236 217.589 32.0638 217.464C30.1414 217.343 29.0128 216.027 29.1327 214.046C29.2492 212.131 30.5779 210.977 32.5334 211.093C34.4377 211.205 35.5877 212.547 35.4679 214.516Z" fill="#B8D4E9"/>
<path d="M61.336 6.41128C59.373 6.36519 58.2369 5.15044 58.2786 3.14013C58.3203 1.12098 59.4842 0.00601098 61.5072 0.0458717C63.4873 0.0851417 64.6095 1.28291 64.5689 3.31216C64.5283 5.32194 63.344 6.45802 61.336 6.41128Z" fill="#B8D4E9"/>
<path d="M32.2488 187.191C30.2676 187.155 29.109 185.949 29.1369 183.954C29.1635 181.951 30.3499 180.797 32.3526 180.824C34.3199 180.85 35.4977 182.073 35.4731 184.064C35.4474 186.042 34.2248 187.228 32.2488 187.191Z" fill="#B8D4E9"/>
<path d="M119.851 120.262C121.589 121.475 123.451 122.493 122.584 124.861C121.992 126.475 120.34 127.328 118.859 126.946C117.761 126.661 116.335 125.319 116.157 124.26C115.708 121.589 118.02 121.024 119.851 120.262Z" fill="#B8D4E9"/>
<path d="M32.3902 66.9606C30.3769 67.0068 29.1819 65.8715 29.1381 63.8725C29.0932 61.8704 30.2293 60.6621 32.2115 60.6019C34.1906 60.5417 35.423 61.7082 35.469 63.6868C35.515 65.6815 34.3543 66.9166 32.3902 66.9606Z" fill="#B8D4E9"/>
<path d="M32.3934 36.6855C30.3779 36.7281 29.1808 35.5915 29.138 33.5964C29.0952 31.5941 30.2367 30.3751 32.2072 30.3205C34.1917 30.2655 35.4177 31.4272 35.4657 33.4091C35.5149 35.4023 34.35 36.6446 32.3934 36.6855Z" fill="#B8D4E9"/>
<path d="M32.3934 6.40864C30.3769 6.44903 29.1809 5.31368 29.1392 3.31897C29.0963 1.29988 30.225 0.095034 32.2041 0.0452055C34.1938 -0.0046229 35.4134 1.15087 35.4637 3.13173C35.514 5.13266 34.3543 6.36984 32.3934 6.40864Z" fill="#B8D4E9"/>
<path d="M61.626 247.741C59.6137 247.845 58.377 246.746 58.2786 244.764C58.1791 242.758 59.2874 241.48 61.2173 241.372C63.191 241.264 64.4651 242.397 64.57 244.354C64.6769 246.356 63.5612 247.64 61.626 247.741Z" fill="#B8D4E9"/>
<path d="M61.3244 217.467C59.3667 217.419 58.2328 216.198 58.2777 214.184C58.3227 212.168 59.4961 211.05 61.5191 211.095C63.4811 211.139 64.6172 212.36 64.5712 214.377C64.5252 216.383 63.3356 217.515 61.3244 217.467Z" fill="#B8D4E9"/>
<path d="M64.5702 183.93C64.6012 185.947 63.4608 187.157 61.4966 187.19C59.479 187.223 58.313 186.097 58.2777 184.078C58.2424 182.055 59.37 180.859 61.348 180.823C63.3634 180.786 64.5391 181.92 64.5702 183.93Z" fill="#B8D4E9"/>
<path d="M90.4629 217.467C88.5073 217.427 87.3595 216.202 87.399 214.194C87.4387 212.182 88.6218 211.049 90.633 211.097C92.6068 211.144 93.7365 212.35 93.6958 214.367C93.6562 216.388 92.488 217.508 90.4629 217.467Z" fill="#B8D4E9"/>
<path d="M64.568 63.8628C64.5327 65.8767 63.3634 66.9992 61.3416 66.9606C59.3678 66.9229 58.2392 65.721 58.2777 63.6995C58.3151 61.6823 59.4801 60.5631 61.5053 60.5986C63.4822 60.6329 64.6033 61.8273 64.568 63.8628Z" fill="#B8D4E9"/>
<path d="M61.5137 36.6891C59.4907 36.7353 58.3183 35.6139 58.2776 33.5968C58.2381 31.5739 59.3634 30.3649 61.3276 30.321C63.3398 30.2753 64.5252 31.4046 64.5701 33.4113C64.615 35.4241 63.4768 36.6445 61.5137 36.6891Z" fill="#B8D4E9"/>
<path d="M87.7018 272.187C92.4356 271.54 93.6894 272.136 93.6873 274.828C93.6862 276.394 92.135 277.829 90.2843 277.974C88.1822 278.138 87.4344 276.566 87.7018 272.187Z" fill="#B8D4E9"/>
<path d="M90.8074 247.74C88.8219 247.874 87.5264 246.763 87.398 244.818C87.2675 242.82 88.3758 241.497 90.2843 241.371C92.2495 241.242 93.5599 242.368 93.6947 244.3C93.8338 246.297 92.7319 247.61 90.8074 247.74Z" fill="#B8D4E9"/>
<path d="M90.2875 187.195C88.3833 187.076 87.2718 185.751 87.398 183.751C87.5221 181.807 88.8112 180.698 90.8041 180.825C92.7319 180.947 93.8306 182.253 93.6936 184.258C93.562 186.185 92.2495 187.317 90.2875 187.195Z" fill="#B8D4E9"/>
<path d="M87.8538 156.526C87.3777 152.192 88.0453 150.542 90.0907 150.563C92.0612 150.582 93.8553 152.321 93.6916 154.054C93.4615 156.492 92.5137 156.922 87.8538 156.526Z" fill="#B8D4E9"/>
<path d="M90.7828 120.299C94.6629 123.777 94.6639 124.022 90.8598 127.412C89.3043 126.909 87.5756 126.767 87.3552 124.416C87.1295 121.993 88.4047 120.995 90.7828 120.299Z" fill="#B8D4E9"/>
<path d="M35.2933 272.234C35.3608 273.423 35.562 274.294 35.425 275.107C35.1501 276.752 33.2052 278.261 31.8316 277.756C30.6602 277.324 29.201 276.948 29.124 275.134C29.0416 273.194 29.9616 271.835 31.9814 271.699C33.0683 271.626 34.1883 272.04 35.2933 272.234Z" fill="#B8D4E9"/>
<path d="M2.938 97.1413C1.32908 96.2089 -0.300267 95.1972 0.145809 92.8996C0.423977 91.4666 2.83422 89.9671 4.12007 90.559C5.03151 90.979 6.00503 92.0112 6.26283 92.9586C6.81808 94.9984 6.30461 95.4646 2.938 97.1413Z" fill="#B8D4E9"/>
<path d="M5.83386 156.554C1.62003 156.878 -0.0552742 156.128 0.0292749 154.118C0.0966578 152.509 2.21594 150.502 3.77776 150.567C5.77511 150.648 6.40727 152.347 5.83386 156.554Z" fill="#B8D4E9"/>
<path d="M87.8559 91.2605C92.5041 90.8491 93.745 91.5053 93.6873 94.1498C93.6542 95.6804 91.8109 97.253 90.2426 97.0876C88.1266 96.8663 87.4098 95.2423 87.8559 91.2605Z" fill="#B8D4E9"/>
<path d="M35.225 91.136C35.3353 92.4765 35.5353 93.3207 35.4422 94.1306C35.2582 95.7258 33.354 97.4314 32.0221 97.0243C30.8186 96.657 29.3691 96.2874 29.138 94.5645C28.8866 92.702 29.812 91.2487 31.7836 90.9393C32.741 90.789 33.7594 91.0361 35.225 91.136Z" fill="#B8D4E9"/>
<path d="M61.5147 156.903C59.4586 156.947 58.2872 155.803 58.2776 153.745C58.2701 151.949 59.4404 150.555 60.9509 150.563C62.6113 150.57 64.4866 152.127 64.5583 153.554C64.662 155.63 63.5441 156.861 61.5147 156.903Z" fill="#B8D4E9"/>
<path d="M0.0357028 63.1926C0.0913212 61.7189 1.50343 60.5857 3.26213 60.6029C5.24974 60.6233 6.39982 61.8285 6.35701 63.8479C6.32069 65.5654 5.07332 66.9767 3.62053 66.9445C1.99771 66.908 -0.0241728 64.792 0.0357028 63.1926Z" fill="#B8D4E9"/>
<path d="M6.35807 183.788C6.47579 185.776 5.33536 187.092 3.40873 187.192C1.65533 187.283 0.205802 186.223 0.0549693 184.741C-0.105523 183.162 1.79441 181.003 3.47716 180.855C4.96098 180.724 6.25439 182.041 6.35807 183.788Z" fill="#B8D4E9"/>
<path d="M32.1633 150.694C33.8033 150.609 35.5031 152.231 35.4646 153.843C35.4207 155.623 34.4142 156.736 32.6939 156.904C30.7362 157.097 29.3412 156.001 29.1315 154.108C28.9561 152.522 30.503 150.78 32.1633 150.694Z" fill="#B8D4E9"/>
<path d="M61.5607 97.0886C59.9122 97.1681 58.2466 95.5634 58.2787 93.9479C58.315 92.1187 59.2362 91.0961 61.0323 90.8888C62.9985 90.6622 64.3636 91.7493 64.5732 93.673C64.7476 95.2777 63.22 97.0091 61.5607 97.0886Z" fill="#B8D4E9"/>
<path d="M58.2819 274.696C58.3418 272.694 59.5315 271.592 61.5618 271.655C63.5527 271.717 64.646 272.929 64.5604 274.977C64.5059 276.295 62.928 277.801 61.5415 277.859C59.8823 277.929 58.2327 276.328 58.2819 274.696Z" fill="#B8D4E9"/>
</svg>
